<svg width="31" height="31" viewBox="0 0 31 31" fill="none" xmlns="http://www.w3.org/2000/svg">
<g id="Arrow Circle Left">
<path id="tone" d="M27.125 15.5C27.125 21.9203 21.9203 27.125 15.5 27.125C9.07969 27.125 3.875 21.9203 3.875 15.5C3.875 9.07969 9.07969 3.875 15.5 3.875C21.9203 3.875 27.125 9.07969 27.125 15.5Z" fill="black" fill-opacity="0.15"/>
<path id="shape" d="M9.04167 15.5H21.9583M9.04167 15.5L14.2083 10.3333M9.04167 15.5L14.2083 20.6667M27.125 15.5C27.125 21.9203 21.9203 27.125 15.5 27.125C9.07969 27.125 3.875 21.9203 3.875 15.5C3.875 9.07969 9.07969 3.875 15.5 3.875C21.9203 3.875 27.125 9.07969 27.125 15.5Z" stroke="#F5EDE5" stroke-width="2" stroke-linecap="round" stroke-linejoin="round"/>
</g>
</svg>
