<svg width="28" height="16" viewBox="0 0 28 16" fill="none" xmlns="http://www.w3.org/2000/svg">
<path id="Vector" d="M25.3669 0.871477L14.3456 12.0595L13.9894 12.4211L13.6332 12.0595L2.61517 0.874774C2.37896 0.644637 2.06495 0.518652 1.74056 0.521514C1.41486 0.524387 1.10177 0.656952 0.869163 0.893078C0.636316 1.12945 0.502937 1.45075 0.500048 1.78816C0.497171 2.12423 0.624004 2.44667 0.851137 2.6869L13.1074 15.1285C13.3426 15.3673 13.6601 15.5 13.9894 15.5C14.3188 15.5 14.6362 15.3673 14.8715 15.1285L27.131 2.68359C27.131 2.68358 27.131 2.68356 27.131 2.68354C27.3664 2.44447 27.5 2.1187 27.5 1.77748C27.5 1.43629 27.3665 1.11055 27.1311 0.871477L25.3669 0.871477ZM25.3669 0.871477C25.6022 0.632727 25.9196 0.5 26.249 0.5M25.3669 0.871477L26.249 0.5M26.249 0.5C26.5783 0.5 26.8957 0.632687 27.131 0.87137L26.249 0.5Z" fill="white" fill-opacity="0.6" stroke="#21321D"/>
</svg>
