<svg width="343" height="407" viewBox="0 0 343 407" fill="none" xmlns="http://www.w3.org/2000/svg">
<g filter="url(#filter0_d_10_134)">
<rect x="4" width="334.18" height="399" rx="29" fill="#415133"/>
</g>
<path d="M37.968 50.336C35.888 50.336 34.24 49.76 33.024 48.608C31.808 47.44 31.2 45.776 31.2 43.616V39.584C31.2 37.424 31.808 35.768 33.024 34.616C34.24 33.448 35.888 32.864 37.968 32.864C40.032 32.864 41.624 33.432 42.744 34.568C43.88 35.688 44.448 37.232 44.448 39.2V39.344H41.328V39.104C41.328 38.112 41.048 37.296 40.488 36.656C39.944 36.016 39.104 35.696 37.968 35.696C36.848 35.696 35.968 36.04 35.328 36.728C34.688 37.416 34.368 38.352 34.368 39.536V43.664C34.368 44.832 34.688 45.768 35.328 46.472C35.968 47.16 36.848 47.504 37.968 47.504C39.104 47.504 39.944 47.184 40.488 46.544C41.048 45.888 41.328 45.072 41.328 44.096V43.664H44.448V44C44.448 45.968 43.88 47.52 42.744 48.656C41.624 49.776 40.032 50.336 37.968 50.336ZM50.8213 50.336C49.9733 50.336 49.2133 50.192 48.5413 49.904C47.8693 49.6 47.3333 49.168 46.9333 48.608C46.5493 48.032 46.3573 47.336 46.3573 46.52C46.3573 45.704 46.5493 45.024 46.9333 44.48C47.3333 43.92 47.8773 43.504 48.5653 43.232C49.2693 42.944 50.0693 42.8 50.9653 42.8H54.2293V42.128C54.2293 41.568 54.0533 41.112 53.7013 40.76C53.3493 40.392 52.7893 40.208 52.0213 40.208C51.2693 40.208 50.7093 40.384 50.3413 40.736C49.9733 41.072 49.7333 41.512 49.6213 42.056L46.8373 41.12C47.0293 40.512 47.3333 39.96 47.7493 39.464C48.1813 38.952 48.7493 38.544 49.4533 38.24C50.1733 37.92 51.0453 37.76 52.0693 37.76C53.6373 37.76 54.8773 38.152 55.7893 38.936C56.7013 39.72 57.1573 40.856 57.1573 42.344V46.784C57.1573 47.264 57.3813 47.504 57.8293 47.504H58.7893V50H56.7733C56.1813 50 55.6933 49.856 55.3093 49.568C54.9253 49.28 54.7333 48.896 54.7333 48.416V48.392H54.2773C54.2133 48.584 54.0693 48.84 53.8453 49.16C53.6213 49.464 53.2693 49.736 52.7893 49.976C52.3093 50.216 51.6533 50.336 50.8213 50.336ZM51.3493 47.888C52.1973 47.888 52.8853 47.656 53.4133 47.192C53.9573 46.712 54.2293 46.08 54.2293 45.296V45.056H51.1813C50.6213 45.056 50.1813 45.176 49.8613 45.416C49.5413 45.656 49.3813 45.992 49.3813 46.424C49.3813 46.856 49.5493 47.208 49.8853 47.48C50.2213 47.752 50.7093 47.888 51.3493 47.888ZM61.0003 50V38.096H63.9763V39.44H64.4083C64.5843 38.96 64.8723 38.608 65.2723 38.384C65.6883 38.16 66.1683 38.048 66.7123 38.048H68.1523V40.736H66.6643C65.8963 40.736 65.2643 40.944 64.7683 41.36C64.2723 41.76 64.0243 42.384 64.0243 43.232V50H61.0003ZM77.6679 50.336C76.5959 50.336 75.7719 50.152 75.1959 49.784C74.6199 49.416 74.1959 49.008 73.9239 48.56H73.4919V50H70.5159V33.2H73.5399V39.464H73.9719C74.1479 39.176 74.3799 38.904 74.6679 38.648C74.9719 38.392 75.3639 38.184 75.8439 38.024C76.3399 37.848 76.9479 37.76 77.6679 37.76C78.6279 37.76 79.5159 38 80.3319 38.48C81.1479 38.944 81.8039 39.632 82.2999 40.544C82.7959 41.456 83.0439 42.56 83.0439 43.856V44.24C83.0439 45.536 82.7959 46.64 82.2999 47.552C81.8039 48.464 81.1479 49.16 80.3319 49.64C79.5159 50.104 78.6279 50.336 77.6679 50.336ZM76.7559 47.696C77.6839 47.696 78.4599 47.4 79.0839 46.808C79.7079 46.2 80.0199 45.32 80.0199 44.168V43.928C80.0199 42.776 79.7079 41.904 79.0839 41.312C78.4759 40.704 77.6999 40.4 76.7559 40.4C75.8279 40.4 75.0519 40.704 74.4279 41.312C73.8039 41.904 73.4919 42.776 73.4919 43.928V44.168C73.4919 45.32 73.8039 46.2 74.4279 46.808C75.0519 47.4 75.8279 47.696 76.7559 47.696ZM91.4846 50.336C90.3006 50.336 89.2366 50.096 88.2926 49.616C87.3486 49.136 86.6046 48.44 86.0606 47.528C85.5166 46.616 85.2446 45.52 85.2446 44.24V43.856C85.2446 42.576 85.5166 41.48 86.0606 40.568C86.6046 39.656 87.3486 38.96 88.2926 38.48C89.2366 38 90.3006 37.76 91.4846 37.76C92.6686 37.76 93.7326 38 94.6766 38.48C95.6206 38.96 96.3646 39.656 96.9086 40.568C97.4526 41.48 97.7246 42.576 97.7246 43.856V44.24C97.7246 45.52 97.4526 46.616 96.9086 47.528C96.3646 48.44 95.6206 49.136 94.6766 49.616C93.7326 50.096 92.6686 50.336 91.4846 50.336ZM91.4846 47.648C92.4126 47.648 93.1806 47.352 93.7886 46.76C94.3966 46.152 94.7006 45.288 94.7006 44.168V43.928C94.7006 42.808 94.3966 41.952 93.7886 41.36C93.1966 40.752 92.4286 40.448 91.4846 40.448C90.5566 40.448 89.7886 40.752 89.1806 41.36C88.5726 41.952 88.2686 42.808 88.2686 43.928V44.168C88.2686 45.288 88.5726 46.152 89.1806 46.76C89.7886 47.352 90.5566 47.648 91.4846 47.648ZM100.516 50V38.096H103.492V39.656H103.924C104.116 39.24 104.476 38.848 105.004 38.48C105.532 38.096 106.332 37.904 107.404 37.904C108.332 37.904 109.14 38.12 109.828 38.552C110.532 38.968 111.076 39.552 111.46 40.304C111.844 41.04 112.036 41.904 112.036 42.896V50H109.012V43.136C109.012 42.24 108.788 41.568 108.34 41.12C107.908 40.672 107.284 40.448 106.468 40.448C105.54 40.448 104.82 40.76 104.308 41.384C103.796 41.992 103.54 42.848 103.54 43.952V50H100.516ZM121.303 50V33.2H132.103V36.08H124.471V40.088H131.431V42.968H124.471V47.12H132.247V50H121.303ZM134.688 50V38.096H137.664V39.392H138.096C138.304 38.992 138.648 38.648 139.128 38.36C139.608 38.056 140.24 37.904 141.024 37.904C141.872 37.904 142.552 38.072 143.064 38.408C143.576 38.728 143.968 39.152 144.24 39.68H144.672C144.944 39.168 145.328 38.744 145.824 38.408C146.32 38.072 147.024 37.904 147.936 37.904C148.672 37.904 149.336 38.064 149.928 38.384C150.536 38.688 151.016 39.16 151.368 39.8C151.736 40.424 151.92 41.216 151.92 42.176V50H148.896V42.392C148.896 41.736 148.728 41.248 148.392 40.928C148.056 40.592 147.584 40.424 146.976 40.424C146.288 40.424 145.752 40.648 145.368 41.096C145 41.528 144.816 42.152 144.816 42.968V50H141.792V42.392C141.792 41.736 141.624 41.248 141.288 40.928C140.952 40.592 140.48 40.424 139.872 40.424C139.184 40.424 138.648 40.648 138.264 41.096C137.896 41.528 137.712 42.152 137.712 42.968V50H134.688ZM155.172 50V38.096H158.148V39.392H158.58C158.788 38.992 159.132 38.648 159.612 38.36C160.092 38.056 160.724 37.904 161.508 37.904C162.356 37.904 163.036 38.072 163.548 38.408C164.06 38.728 164.452 39.152 164.724 39.68H165.156C165.428 39.168 165.812 38.744 166.308 38.408C166.804 38.072 167.508 37.904 168.42 37.904C169.156 37.904 169.82 38.064 170.412 38.384C171.02 38.688 171.5 39.16 171.852 39.8C172.22 40.424 172.404 41.216 172.404 42.176V50H169.38V42.392C169.38 41.736 169.212 41.248 168.876 40.928C168.54 40.592 168.068 40.424 167.46 40.424C166.772 40.424 166.236 40.648 165.852 41.096C165.484 41.528 165.3 42.152 165.3 42.968V50H162.276V42.392C162.276 41.736 162.108 41.248 161.772 40.928C161.436 40.592 160.964 40.424 160.356 40.424C159.668 40.424 159.132 40.648 158.748 41.096C158.38 41.528 158.196 42.152 158.196 42.968V50H155.172ZM175.657 50V38.096H178.681V50H175.657ZM177.169 36.704C176.625 36.704 176.161 36.528 175.777 36.176C175.409 35.824 175.225 35.36 175.225 34.784C175.225 34.208 175.409 33.744 175.777 33.392C176.161 33.04 176.625 32.864 177.169 32.864C177.729 32.864 178.193 33.04 178.561 33.392C178.929 33.744 179.113 34.208 179.113 34.784C179.113 35.36 178.929 35.824 178.561 36.176C178.193 36.528 177.729 36.704 177.169 36.704ZM186.976 50.336C185.424 50.336 184.152 50 183.16 49.328C182.168 48.656 181.568 47.696 181.36 46.448L184.144 45.728C184.256 46.288 184.44 46.728 184.696 47.048C184.968 47.368 185.296 47.6 185.68 47.744C186.08 47.872 186.512 47.936 186.976 47.936C187.68 47.936 188.2 47.816 188.536 47.576C188.872 47.32 189.04 47.008 189.04 46.64C189.04 46.272 188.88 45.992 188.56 45.8C188.24 45.592 187.728 45.424 187.024 45.296L186.352 45.176C185.52 45.016 184.76 44.8 184.072 44.528C183.384 44.24 182.832 43.848 182.416 43.352C182 42.856 181.792 42.216 181.792 41.432C181.792 40.248 182.224 39.344 183.088 38.72C183.952 38.08 185.088 37.76 186.496 37.76C187.824 37.76 188.928 38.056 189.808 38.648C190.688 39.24 191.264 40.016 191.536 40.976L188.728 41.84C188.6 41.232 188.336 40.8 187.936 40.544C187.552 40.288 187.072 40.16 186.496 40.16C185.92 40.16 185.48 40.264 185.176 40.472C184.872 40.664 184.72 40.936 184.72 41.288C184.72 41.672 184.88 41.96 185.2 42.152C185.52 42.328 185.952 42.464 186.496 42.56L187.168 42.68C188.064 42.84 188.872 43.056 189.592 43.328C190.328 43.584 190.904 43.96 191.32 44.456C191.752 44.936 191.968 45.592 191.968 46.424C191.968 47.672 191.512 48.64 190.6 49.328C189.704 50 188.496 50.336 186.976 50.336ZM199.562 50.336C198.01 50.336 196.738 50 195.746 49.328C194.754 48.656 194.154 47.696 193.946 46.448L196.73 45.728C196.842 46.288 197.026 46.728 197.282 47.048C197.554 47.368 197.882 47.6 198.266 47.744C198.666 47.872 199.098 47.936 199.562 47.936C200.266 47.936 200.786 47.816 201.122 47.576C201.458 47.32 201.626 47.008 201.626 46.64C201.626 46.272 201.466 45.992 201.146 45.8C200.826 45.592 200.314 45.424 199.61 45.296L198.938 45.176C198.106 45.016 197.346 44.8 196.658 44.528C195.97 44.24 195.418 43.848 195.002 43.352C194.586 42.856 194.378 42.216 194.378 41.432C194.378 40.248 194.81 39.344 195.674 38.72C196.538 38.08 197.674 37.76 199.082 37.76C200.41 37.76 201.514 38.056 202.394 38.648C203.274 39.24 203.85 40.016 204.122 40.976L201.314 41.84C201.186 41.232 200.922 40.8 200.522 40.544C200.138 40.288 199.658 40.16 199.082 40.16C198.506 40.16 198.066 40.264 197.762 40.472C197.458 40.664 197.306 40.936 197.306 41.288C197.306 41.672 197.466 41.96 197.786 42.152C198.106 42.328 198.538 42.464 199.082 42.56L199.754 42.68C200.65 42.84 201.458 43.056 202.178 43.328C202.914 43.584 203.49 43.96 203.906 44.456C204.338 44.936 204.554 45.592 204.554 46.424C204.554 47.672 204.098 48.64 203.186 49.328C202.29 50 201.082 50.336 199.562 50.336ZM207.203 50V38.096H210.227V50H207.203ZM208.715 36.704C208.171 36.704 207.707 36.528 207.323 36.176C206.955 35.824 206.771 35.36 206.771 34.784C206.771 34.208 206.955 33.744 207.323 33.392C207.707 33.04 208.171 32.864 208.715 32.864C209.275 32.864 209.739 33.04 210.107 33.392C210.475 33.744 210.659 34.208 210.659 34.784C210.659 35.36 210.475 35.824 210.107 36.176C209.739 36.528 209.275 36.704 208.715 36.704ZM219.242 50.336C218.058 50.336 216.994 50.096 216.05 49.616C215.106 49.136 214.362 48.44 213.818 47.528C213.274 46.616 213.002 45.52 213.002 44.24V43.856C213.002 42.576 213.274 41.48 213.818 40.568C214.362 39.656 215.106 38.96 216.05 38.48C216.994 38 218.058 37.76 219.242 37.76C220.426 37.76 221.49 38 222.434 38.48C223.378 38.96 224.122 39.656 224.666 40.568C225.21 41.48 225.482 42.576 225.482 43.856V44.24C225.482 45.52 225.21 46.616 224.666 47.528C224.122 48.44 223.378 49.136 222.434 49.616C221.49 50.096 220.426 50.336 219.242 50.336ZM219.242 47.648C220.17 47.648 220.938 47.352 221.546 46.76C222.154 46.152 222.458 45.288 222.458 44.168V43.928C222.458 42.808 222.154 41.952 221.546 41.36C220.954 40.752 220.186 40.448 219.242 40.448C218.314 40.448 217.546 40.752 216.938 41.36C216.33 41.952 216.026 42.808 216.026 43.928V44.168C216.026 45.288 216.33 46.152 216.938 46.76C217.546 47.352 218.314 47.648 219.242 47.648ZM228.274 50V38.096H231.25V39.656H231.682C231.874 39.24 232.234 38.848 232.762 38.48C233.29 38.096 234.09 37.904 235.162 37.904C236.09 37.904 236.898 38.12 237.586 38.552C238.29 38.968 238.834 39.552 239.218 40.304C239.602 41.04 239.794 41.904 239.794 42.896V50H236.77V43.136C236.77 42.24 236.546 41.568 236.098 41.12C235.666 40.672 235.042 40.448 234.226 40.448C233.298 40.448 232.578 40.76 232.066 41.384C231.554 41.992 231.298 42.848 231.298 43.952V50H228.274ZM31.584 81V64.2H38.88C39.936 64.2 40.856 64.384 41.64 64.752C42.424 65.12 43.032 65.64 43.464 66.312C43.896 66.984 44.112 67.776 44.112 68.688V68.976C44.112 69.984 43.872 70.8 43.392 71.424C42.912 72.048 42.32 72.504 41.616 72.792V73.224C42.256 73.256 42.752 73.48 43.104 73.896C43.456 74.296 43.632 74.832 43.632 75.504V81H40.464V75.96C40.464 75.576 40.36 75.264 40.152 75.024C39.96 74.784 39.632 74.664 39.168 74.664H34.752V81H31.584ZM34.752 71.784H38.544C39.296 71.784 39.88 71.584 40.296 71.184C40.728 70.768 40.944 70.224 40.944 69.552V69.312C40.944 68.64 40.736 68.104 40.32 67.704C39.904 67.288 39.312 67.08 38.544 67.08H34.752V71.784ZM52.2681 81.336C51.0841 81.336 50.0361 81.088 49.1241 80.592C48.2281 80.08 47.5241 79.368 47.0121 78.456C46.5161 77.528 46.2681 76.44 46.2681 75.192V74.904C46.2681 73.656 46.5161 72.576 47.0121 71.664C47.5081 70.736 48.2041 70.024 49.1001 69.528C49.9961 69.016 51.0361 68.76 52.2201 68.76C53.3881 68.76 54.4041 69.024 55.2681 69.552C56.1321 70.064 56.8041 70.784 57.2841 71.712C57.7641 72.624 58.0041 73.688 58.0041 74.904V75.936H49.3401C49.3721 76.752 49.6761 77.416 50.2521 77.928C50.8281 78.44 51.5321 78.696 52.3641 78.696C53.2121 78.696 53.8361 78.512 54.2361 78.144C54.6361 77.776 54.9401 77.368 55.1481 76.92L57.6201 78.216C57.3961 78.632 57.0681 79.088 56.6361 79.584C56.2201 80.064 55.6601 80.48 54.9561 80.832C54.2521 81.168 53.3561 81.336 52.2681 81.336ZM49.3641 73.68H54.9321C54.8681 72.992 54.5881 72.44 54.0921 72.024C53.6121 71.608 52.9801 71.4 52.1961 71.4C51.3801 71.4 50.7321 71.608 50.2521 72.024C49.7721 72.44 49.4761 72.992 49.3641 73.68ZM65.4956 81.336C64.5516 81.336 63.6636 81.104 62.8316 80.64C62.0156 80.16 61.3596 79.464 60.8636 78.552C60.3676 77.64 60.1196 76.536 60.1196 75.24V74.856C60.1196 73.56 60.3676 72.456 60.8636 71.544C61.3596 70.632 62.0156 69.944 62.8316 69.48C63.6476 69 64.5356 68.76 65.4956 68.76C66.2156 68.76 66.8156 68.848 67.2956 69.024C67.7916 69.184 68.1916 69.392 68.4956 69.648C68.7996 69.904 69.0316 70.176 69.1916 70.464H69.6236V64.2H72.6476V81H69.6716V79.56H69.2396C68.9676 80.008 68.5436 80.416 67.9676 80.784C67.4076 81.152 66.5836 81.336 65.4956 81.336ZM66.4076 78.696C67.3356 78.696 68.1116 78.4 68.7356 77.808C69.3596 77.2 69.6716 76.32 69.6716 75.168V74.928C69.6716 73.776 69.3596 72.904 68.7356 72.312C68.1276 71.704 67.3516 71.4 66.4076 71.4C65.4796 71.4 64.7036 71.704 64.0796 72.312C63.4556 72.904 63.1436 73.776 63.1436 74.928V75.168C63.1436 76.32 63.4556 77.2 64.0796 77.808C64.7036 78.4 65.4796 78.696 66.4076 78.696ZM80.5363 81.192C79.6083 81.192 78.7923 80.984 78.0883 80.568C77.4003 80.136 76.8643 79.544 76.4803 78.792C76.0963 78.04 75.9043 77.176 75.9043 76.2V69.096H78.9283V75.96C78.9283 76.856 79.1443 77.528 79.5763 77.976C80.0243 78.424 80.6563 78.648 81.4723 78.648C82.4003 78.648 83.1203 78.344 83.6323 77.736C84.1443 77.112 84.4003 76.248 84.4003 75.144V69.096H87.4243V81H84.4483V79.44H84.0163C83.8243 79.84 83.4643 80.232 82.9363 80.616C82.4083 81 81.6083 81.192 80.5363 81.192ZM96.3814 81.336C95.2294 81.336 94.1814 81.096 93.2374 80.616C92.3094 80.136 91.5734 79.44 91.0294 78.528C90.4854 77.616 90.2134 76.512 90.2134 75.216V74.88C90.2134 73.584 90.4854 72.48 91.0294 71.568C91.5734 70.656 92.3094 69.96 93.2374 69.48C94.1814 69 95.2294 68.76 96.3814 68.76C97.5174 68.76 98.4934 68.96 99.3094 69.36C100.125 69.76 100.781 70.312 101.277 71.016C101.789 71.704 102.125 72.488 102.285 73.368L99.3574 73.992C99.2934 73.512 99.1494 73.08 98.9254 72.696C98.7014 72.312 98.3814 72.008 97.9654 71.784C97.5654 71.56 97.0614 71.448 96.4534 71.448C95.8454 71.448 95.2934 71.584 94.7974 71.856C94.3174 72.112 93.9334 72.504 93.6454 73.032C93.3734 73.544 93.2374 74.176 93.2374 74.928V75.168C93.2374 75.92 93.3734 76.56 93.6454 77.088C93.9334 77.6 94.3174 77.992 94.7974 78.264C95.2934 78.52 95.8454 78.648 96.4534 78.648C97.3654 78.648 98.0534 78.416 98.5174 77.952C98.9974 77.472 99.3014 76.848 99.4294 76.08L102.357 76.776C102.149 77.624 101.789 78.4 101.277 79.104C100.781 79.792 100.125 80.336 99.3094 80.736C98.4934 81.136 97.5174 81.336 96.3814 81.336ZM109.013 81C108.229 81 107.589 80.76 107.093 80.28C106.613 79.784 106.373 79.128 106.373 78.312V71.592H103.397V69.096H106.373V65.4H109.397V69.096H112.661V71.592H109.397V77.784C109.397 78.264 109.621 78.504 110.069 78.504H112.373V81H109.013ZM115.399 81V69.096H118.423V81H115.399ZM116.911 67.704C116.367 67.704 115.903 67.528 115.519 67.176C115.151 66.824 114.967 66.36 114.967 65.784C114.967 65.208 115.151 64.744 115.519 64.392C115.903 64.04 116.367 63.864 116.911 63.864C117.471 63.864 117.935 64.04 118.303 64.392C118.671 64.744 118.855 65.208 118.855 65.784C118.855 66.36 118.671 66.824 118.303 67.176C117.935 67.528 117.471 67.704 116.911 67.704ZM127.438 81.336C126.254 81.336 125.19 81.096 124.246 80.616C123.302 80.136 122.558 79.44 122.014 78.528C121.47 77.616 121.198 76.52 121.198 75.24V74.856C121.198 73.576 121.47 72.48 122.014 71.568C122.558 70.656 123.302 69.96 124.246 69.48C125.19 69 126.254 68.76 127.438 68.76C128.622 68.76 129.686 69 130.63 69.48C131.574 69.96 132.318 70.656 132.862 71.568C133.406 72.48 133.678 73.576 133.678 74.856V75.24C133.678 76.52 133.406 77.616 132.862 78.528C132.318 79.44 131.574 80.136 130.63 80.616C129.686 81.096 128.622 81.336 127.438 81.336ZM127.438 78.648C128.366 78.648 129.134 78.352 129.742 77.76C130.35 77.152 130.654 76.288 130.654 75.168V74.928C130.654 73.808 130.35 72.952 129.742 72.36C129.15 71.752 128.382 71.448 127.438 71.448C126.51 71.448 125.742 71.752 125.134 72.36C124.526 72.952 124.222 73.808 124.222 74.928V75.168C124.222 76.288 124.526 77.152 125.134 77.76C125.742 78.352 126.51 78.648 127.438 78.648ZM136.469 81V69.096H139.445V70.656H139.877C140.069 70.24 140.429 69.848 140.957 69.48C141.485 69.096 142.285 68.904 143.357 68.904C144.285 68.904 145.093 69.12 145.781 69.552C146.485 69.968 147.029 70.552 147.413 71.304C147.797 72.04 147.989 72.904 147.989 73.896V81H144.965V74.136C144.965 73.24 144.741 72.568 144.293 72.12C143.861 71.672 143.237 71.448 142.421 71.448C141.493 71.448 140.773 71.76 140.261 72.384C139.749 72.992 139.493 73.848 139.493 74.952V81H136.469Z" fill="white"/>
<g filter="url(#filter1_d_10_134)">
<line opacity="0.5" x1="50.4143" y1="359.435" x2="50.4143" y2="169" stroke="#B1B1B1" stroke-width="0.5"/>
<line opacity="0.5" x1="195.51" y1="359.435" x2="195.51" y2="169" stroke="#B1B1B1" stroke-width="0.5"/>
<line opacity="0.5" x1="98.7822" y1="359.435" x2="98.7822" y2="169" stroke="#B1B1B1" stroke-width="0.5"/>
<line x1="243.878" y1="359.435" x2="243.878" y2="169" stroke="#B1B1B1" stroke-width="0.5"/>
<line opacity="0.5" x1="147.146" y1="359.435" x2="147.146" y2="169" stroke="#B1B1B1" stroke-width="0.5"/>
<line opacity="0.5" x1="292.242" y1="359.435" x2="292.242" y2="169" stroke="#B1B1B1" stroke-width="0.5"/>
<path d="M50.4249 186.839V357.937H291.923V219.316C286.684 208.49 274.918 185.414 269.774 179.716C263.344 172.593 261.2 190.96 250.483 219.316C241.909 242 232.144 228.767 228.333 219.316L209.757 202.449C205.946 211.428 197.182 225.368 192.609 209.293C188.036 193.219 176.89 187.626 171.889 186.839C165.783 193.59 151.528 209.538 143.348 219.316C133.122 231.538 129.843 218.093 120.968 202.449C112.093 186.805 102.447 205.627 96.4665 209.293C90.4857 212.96 84.505 195.116 83.1545 190.96C81.8041 186.805 73.8941 192.183 69.8426 190.96C66.6015 189.983 65.4099 177.575 60.8644 178.215L50.4249 186.839Z" fill="url(#paint0_linear_10_134)"/>
<path d="M291.921 263.689V357.936H50.4225V281.579C55.6621 275.615 67.4274 262.904 72.5718 259.766C79.0022 255.842 81.1457 265.959 91.8631 281.579C100.437 294.074 110.202 286.785 114.012 281.579L132.589 272.288C136.4 277.234 145.164 284.913 149.737 276.058C154.31 267.204 165.456 264.123 170.457 263.689C176.563 267.408 190.818 276.193 198.998 281.579C209.223 288.311 212.503 280.905 221.378 272.288C230.252 263.67 239.899 274.038 245.879 276.058C251.86 278.078 257.841 268.248 259.191 265.959C260.542 263.67 268.452 266.633 272.503 265.959C275.744 265.421 276.936 258.586 281.481 258.939L291.921 263.689Z" fill="url(#paint1_linear_10_134)"/>
<path d="M50.4249 186.839L60.8644 178.215C65.4099 177.575 66.6015 189.983 69.8426 190.96C73.8941 192.183 81.8041 186.805 83.1545 190.96C84.505 195.116 90.4857 212.96 96.4665 209.293C102.447 205.627 112.093 186.805 120.968 202.449C129.843 218.093 133.122 231.538 143.348 219.316C151.528 209.538 165.783 193.59 171.889 186.839C176.89 187.626 188.036 193.219 192.609 209.293C197.182 225.368 205.946 211.428 209.757 202.449L228.333 219.316C232.144 228.767 241.909 242 250.483 219.316C261.2 190.96 263.344 172.593 269.774 179.716C274.918 185.414 286.684 208.49 291.923 219.316" stroke="#001DFF"/>
<path d="M291.921 263.689L281.481 258.939C276.936 258.586 275.744 265.421 272.503 265.959C268.452 266.633 260.542 263.67 259.191 265.959C257.841 268.248 251.86 278.078 245.879 276.058C239.899 274.038 230.252 263.67 221.378 272.288C212.503 280.905 209.223 288.311 198.998 281.579C190.818 276.193 176.563 267.408 170.457 263.689C165.456 264.123 154.31 267.204 149.737 276.058C145.164 284.913 136.4 277.234 132.589 272.288L114.012 281.579C110.202 286.785 100.437 294.074 91.863 281.579C81.1457 265.959 79.0022 255.842 72.5718 259.766C67.4274 262.904 55.6621 275.615 50.4225 281.579" stroke="#8ED947"/>
<line x1="50.5" y1="360.443" x2="50.5" y2="366" stroke="black"/>
<line x1="62.592" y1="360.443" x2="62.592" y2="366" stroke="#8A8A8A"/>
<line x1="110.96" y1="360.443" x2="110.96" y2="366" stroke="#8A8A8A"/>
<line x1="159.328" y1="360.443" x2="159.328" y2="366" stroke="#8A8A8A"/>
<line x1="207.696" y1="360.443" x2="207.696" y2="366" stroke="#8A8A8A"/>
<line x1="256.064" y1="360.443" x2="256.064" y2="366" stroke="#8A8A8A"/>
<line x1="74.684" y1="360.443" x2="74.684" y2="366" stroke="#8A8A8A"/>
<line x1="123.052" y1="360.443" x2="123.052" y2="366" stroke="#8A8A8A"/>
<line x1="171.42" y1="360.443" x2="171.42" y2="366" stroke="#8A8A8A"/>
<line x1="219.788" y1="360.443" x2="219.788" y2="366" stroke="#8A8A8A"/>
<line x1="268.156" y1="360.443" x2="268.156" y2="366" stroke="#8A8A8A"/>
<line x1="86.776" y1="360.443" x2="86.776" y2="366" stroke="#8A8A8A"/>
<line x1="135.144" y1="360.443" x2="135.144" y2="366" stroke="#8A8A8A"/>
<line x1="183.512" y1="360.443" x2="183.512" y2="366" stroke="#8A8A8A"/>
<line x1="231.88" y1="360.443" x2="231.88" y2="366" stroke="#8A8A8A"/>
<line x1="280.248" y1="360.443" x2="280.248" y2="366" stroke="#8A8A8A"/>
<line x1="98.8679" y1="360.443" x2="98.8679" y2="366" stroke="black"/>
<line x1="147.236" y1="360.443" x2="147.236" y2="366" stroke="black"/>
<line x1="195.604" y1="360.443" x2="195.604" y2="366" stroke="black"/>
<line x1="243.972" y1="360.443" x2="243.972" y2="366" stroke="black"/>
<line x1="292.34" y1="360.443" x2="292.34" y2="366" stroke="black"/>
</g>
<defs>
<filter id="filter0_d_10_134" x="0" y="0" width="342.18" height="407" filterUnits="userSpaceOnUse" color-interpolation-filters="sRGB">
<feFlood flood-opacity="0" result="BackgroundImageFix"/>
<feColorMatrix in="SourceAlpha" type="matrix" values="0 0 0 0 0 0 0 0 0 0 0 0 0 0 0 0 0 0 127 0" result="hardAlpha"/>
<feOffset dy="4"/>
<feGaussianBlur stdDeviation="2"/>
<feComposite in2="hardAlpha" operator="out"/>
<feColorMatrix type="matrix" values="0 0 0 0 0 0 0 0 0 0 0 0 0 0 0 0 0 0 0.25 0"/>
<feBlend mode="normal" in2="BackgroundImageFix" result="effect1_dropShadow_10_134"/>
<feBlend mode="normal" in="SourceGraphic" in2="effect1_dropShadow_10_134" result="shape"/>
</filter>
<filter id="filter1_d_10_134" x="46" y="165" width="250.84" height="205" filterUnits="userSpaceOnUse" color-interpolation-filters="sRGB">
<feFlood flood-opacity="0" result="BackgroundImageFix"/>
<feColorMatrix in="SourceAlpha" type="matrix" values="0 0 0 0 0 0 0 0 0 0 0 0 0 0 0 0 0 0 127 0" result="hardAlpha"/>
<feOffset/>
<feGaussianBlur stdDeviation="2"/>
<feComposite in2="hardAlpha" operator="out"/>
<feColorMatrix type="matrix" values="0 0 0 0 0 0 0 0 0 0 0 0 0 0 0 0 0 0 0.25 0"/>
<feBlend mode="normal" in2="BackgroundImageFix" result="effect1_dropShadow_10_134"/>
<feBlend mode="normal" in="SourceGraphic" in2="effect1_dropShadow_10_134" result="shape"/>
</filter>
<linearGradient id="paint0_linear_10_134" x1="171.174" y1="178.178" x2="171.174" y2="357.937" gradientUnits="userSpaceOnUse">
<stop stop-color="#C5BC77"/>
<stop offset="1" stop-color="white" stop-opacity="0"/>
</linearGradient>
<linearGradient id="paint1_linear_10_134" x1="171.172" y1="258.918" x2="171.172" y2="357.936" gradientUnits="userSpaceOnUse">
<stop stop-color="#8ED64C"/>
<stop offset="1" stop-color="#FEFEFE" stop-opacity="0"/>
</linearGradient>
</defs>
</svg>
