<svg width="20" height="20" viewBox="0 0 20 20" fill="none" xmlns="http://www.w3.org/2000/svg">
<g id="Cloud">
<path id="tone" d="M2.5 12.4998C2.5 14.3408 3.99238 15.8332 5.83333 15.8332H14.1667C16.0076 15.8332 17.5 14.3408 17.5 12.4998C17.5 10.6589 16.0076 9.1665 14.1667 9.1665C14.1387 9.1665 14.1109 9.16685 14.0831 9.16753C14.1379 8.89796 14.1667 8.61892 14.1667 8.33317C14.1667 6.03198 12.3012 4.1665 10 4.1665C7.69881 4.1665 5.83333 6.03198 5.83333 8.33317C5.83333 8.61892 5.8621 8.89796 5.91689 9.16753C5.88912 9.16685 5.86127 9.1665 5.83333 9.1665C3.99238 9.1665 2.5 10.6589 2.5 12.4998Z" fill="black" fill-opacity="0.15"/>
<path id="shape" d="M14.1667 15.8332C16.0076 15.8332 17.5 14.3408 17.5 12.4998C17.5 10.6589 16.0076 9.1665 14.1667 9.1665V8.33317C14.1667 6.03198 12.3012 4.1665 10 4.1665C7.69881 4.1665 5.83333 6.03198 5.83333 8.33317V9.1665M5.83333 9.1665C3.99238 9.1665 2.5 10.6589 2.5 12.4998C2.5 14.3408 3.99238 15.8332 5.83333 15.8332M5.83333 9.1665C6.67871 9.1665 7.45058 9.4812 8.03819 9.99984" stroke="#F4EBE2" stroke-width="2" stroke-linecap="round" stroke-linejoin="round"/>
</g>
</svg>
