<svg width="19" height="19" viewBox="0 0 19 19" fill="none" xmlns="http://www.w3.org/2000/svg">
<g id="Coin">
<path id="tone" d="M16.625 9.5C16.625 13.435 13.435 16.625 9.5 16.625C5.56497 16.625 2.375 13.435 2.375 9.5C2.375 5.56497 5.56497 2.375 9.5 2.375C13.435 2.375 16.625 5.56497 16.625 9.5Z" fill="black" fill-opacity="0.15"/>
<path id="shape" d="M9.5 12.6667H10.2917C10.8194 12.6667 11.875 12.35 11.875 11.0833C11.875 9.81667 10.8194 9.5 10.2917 9.5H8.70833C8.18056 9.5 7.125 9.18333 7.125 7.91667C7.125 6.65 8.18056 6.33333 8.70833 6.33333H9.5M9.5 12.6667H7.125M9.5 12.6667V14.25M11.875 6.33333H9.5M9.5 6.33333V4.75M16.625 9.5C16.625 13.435 13.435 16.625 9.5 16.625C5.56497 16.625 2.375 13.435 2.375 9.5C2.375 5.56497 5.56497 2.375 9.5 2.375C13.435 2.375 16.625 5.56497 16.625 9.5Z" stroke="#F4EBE2" stroke-width="2" stroke-linecap="round" stroke-linejoin="round"/>
</g>
</svg>
