<svg width="255" height="36" viewBox="0 0 255 36" fill="none" xmlns="http://www.w3.org/2000/svg">
<g id="Graph lines">
<path id="Shape" d="M1.82227 21.6204C12.8819 19.4331 21.9765 6.09495 35.1727 3.85299C42.2061 2.65806 47.8406 4.98374 54.1272 8.59742C60.4138 12.2111 59.1832 13.7715 73.3217 16.5574C84.9892 18.8564 88.0412 26.7708 99.4742 27.7231C110.907 28.6755 116.195 -1.12576 128.266 1.36193C140.337 3.84962 142.748 -2.58221 154.095 9.60746C165.442 21.7971 175.925 12.0701 190.168 9.58244C204.412 7.09475 208.121 14.8123 214.881 13.8173C221.641 12.8222 227.727 31.6367 233.521 34.3731C239.315 37.1096 240.958 27.169 253.27 27.169" stroke="#A2845E" stroke-width="2" stroke-linecap="round" stroke-linejoin="round"/>
</g>
</svg>
