<svg width="348" height="421" viewBox="0 0 348 421" fill="none" xmlns="http://www.w3.org/2000/svg">
<g filter="url(#filter0_d_338_563)">
<rect x="9" width="334.18" height="399" rx="29" fill="#1A241B"/>
</g>
<g filter="url(#filter1_dd_338_563)">
<path d="M62.8232 333.143H314.581" stroke="#E4E4E4" stroke-opacity="0.2" stroke-linecap="square"/>
<path d="M62.8232 292.19H314.581" stroke="#E4E4E4" stroke-opacity="0.2" stroke-linecap="square"/>
<path d="M62.8232 251.237H314.581" stroke="#E4E4E4" stroke-opacity="0.2" stroke-linecap="square"/>
<path d="M62.8232 210.284H314.581" stroke="#E4E4E4" stroke-opacity="0.2" stroke-linecap="square"/>
<path d="M62.8232 169.33H314.581" stroke="#E4E4E4" stroke-opacity="0.2" stroke-linecap="square"/>
<path d="M62.8232 280.621C73.8829 278.433 82.9774 265.095 96.1736 262.853C103.207 261.658 108.842 263.984 115.128 267.598C121.415 271.211 120.184 272.772 134.323 275.558C145.99 277.857 149.042 285.771 160.475 286.723C171.908 287.676 177.196 257.874 189.267 260.362C201.338 262.85 203.749 256.418 215.096 268.608C226.442 280.797 236.925 271.07 251.169 268.583C265.413 266.095 269.122 273.813 275.882 272.817C282.642 271.822 288.728 290.637 294.522 293.373C300.316 296.11 301.959 286.169 314.271 286.169" stroke="#A2845E" stroke-width="2" stroke-linecap="round" stroke-linejoin="round"/>
<path fill-rule="evenodd" clip-rule="evenodd" d="M257.074 332.162V264.986H258.035V332.162H257.074Z" fill="#6979F8"/>
<g filter="url(#filter2_dd_338_563)">
<rect x="250.828" y="259.452" width="13.4527" height="15.4958" rx="6.72634" fill="#6979F8"/>
<rect x="251.828" y="260.452" width="11.4527" height="13.4958" rx="5.72634" stroke="white" stroke-width="2"/>
</g>
<g filter="url(#filter3_dd_338_563)">
<path fill-rule="evenodd" clip-rule="evenodd" d="M261.361 254.083C259.524 256.814 256.546 256.814 254.709 254.083L251.754 250.304C250.806 249.092 249.353 248.384 247.815 248.384H239.998C233.573 248.384 231.243 247.613 228.894 246.166C226.545 244.719 224.702 242.596 223.446 239.89C222.189 237.185 221.521 234.501 221.521 227.1V208.791C221.521 201.39 222.189 198.707 223.446 196.001C224.702 193.295 226.545 191.172 228.894 189.725C231.243 188.278 233.573 187.508 239.998 187.508H275.111C281.536 187.508 283.866 188.278 286.215 189.725C288.564 191.172 290.407 193.295 291.663 196.001C292.919 198.707 293.588 201.39 293.588 208.791V227.1C293.588 234.501 292.919 237.185 291.663 239.89C290.407 242.596 288.564 244.719 286.215 246.166C283.866 247.613 281.536 248.384 275.111 248.384H270.692C267.616 248.384 264.71 249.8 262.815 252.224L261.361 254.083Z" fill="white"/>
</g>
<path d="M249.086 233.033V226.733H250.283L252.029 230.72L253.748 226.733H254.972V233.033H254.117V227.822L252.434 231.611H251.588L249.896 227.822V233.033H249.086ZM258.293 233.141C257.903 233.141 257.549 233.042 257.231 232.844C256.913 232.646 256.658 232.367 256.466 232.007C256.28 231.641 256.187 231.212 256.187 230.72C256.187 230.252 256.28 229.832 256.466 229.46C256.658 229.088 256.919 228.794 257.249 228.578C257.585 228.356 257.969 228.245 258.401 228.245C258.671 228.245 258.914 228.293 259.13 228.389C259.352 228.479 259.544 228.593 259.706 228.731V228.353H260.444V231.899C260.444 232.127 260.498 232.277 260.606 232.349C260.72 232.415 260.843 232.448 260.975 232.448L260.804 233.078C260.228 233.078 259.88 232.844 259.76 232.376C259.622 232.568 259.433 232.745 259.193 232.907C258.959 233.063 258.659 233.141 258.293 233.141ZM258.473 232.421C258.701 232.421 258.917 232.367 259.121 232.259C259.325 232.145 259.496 232.004 259.634 231.836V229.325C259.472 229.211 259.292 229.121 259.094 229.055C258.902 228.983 258.698 228.947 258.482 228.947C258.194 228.947 257.939 229.022 257.717 229.172C257.501 229.316 257.33 229.52 257.204 229.784C257.078 230.042 257.015 230.345 257.015 230.693C257.015 231.029 257.078 231.329 257.204 231.593C257.33 231.851 257.504 232.055 257.726 232.205C257.948 232.349 258.197 232.421 258.473 232.421ZM261.998 235.121C261.818 235.121 261.659 235.103 261.521 235.067C261.389 235.031 261.284 234.989 261.206 234.941L261.386 234.266C261.458 234.308 261.548 234.344 261.656 234.374C261.764 234.404 261.884 234.419 262.016 234.419C262.268 234.419 262.493 234.338 262.691 234.176C262.889 234.014 263.078 233.696 263.258 233.222L263.465 232.682H263.033L261.206 228.569L261.926 228.245L263.672 232.142L265.031 228.281L265.778 228.569L264.059 233.267C263.885 233.747 263.696 234.122 263.492 234.392C263.288 234.662 263.063 234.851 262.817 234.959C262.571 235.067 262.298 235.121 261.998 235.121Z" fill="#666666"/>
<path d="M246.498 209.861C246.228 209.861 245.703 209.731 244.923 209.471C244.163 209.221 243.678 209.096 243.468 209.096C243.278 209.096 243.048 209.151 242.778 209.261C242.518 209.361 242.303 209.466 242.133 209.576L241.878 209.726L241.728 208.406C242.338 207.886 242.938 207.626 243.528 207.626C243.818 207.626 244.333 207.751 245.073 208.001C245.833 208.261 246.308 208.391 246.498 208.391C246.858 208.391 247.298 208.236 247.818 207.926L248.073 207.776L248.208 209.081C248.108 209.181 247.988 209.276 247.848 209.366C247.718 209.456 247.573 209.541 247.413 209.621C247.253 209.691 247.093 209.751 246.933 209.801C246.783 209.841 246.638 209.861 246.498 209.861ZM255.896 212.576H254.216V210.806H249.761V209.531L252.371 202.676H254.216L251.456 209.351H254.216V206.441H255.896V209.351H256.976V210.806H255.896V212.576ZM263.21 204.176H258.65V202.676H264.89V204.656L261.245 212.741L259.685 212.291L263.21 204.626V204.176ZM270.583 210.581C270.583 209.161 271.163 208.451 272.323 208.451C273.473 208.451 274.048 209.161 274.048 210.581C274.048 211.301 273.898 211.841 273.598 212.201C273.308 212.561 272.883 212.741 272.323 212.741C271.763 212.741 271.333 212.561 271.033 212.201C270.733 211.841 270.583 211.301 270.583 210.581ZM272.323 209.471C272.133 209.471 271.998 209.556 271.918 209.726C271.838 209.916 271.798 210.201 271.798 210.581C271.798 210.671 271.798 210.781 271.798 210.911C271.808 211.041 271.828 211.171 271.858 211.301C271.888 211.421 271.938 211.526 272.008 211.616C272.078 211.696 272.178 211.736 272.308 211.736C272.508 211.736 272.643 211.646 272.713 211.466C272.783 211.296 272.818 211.001 272.818 210.581C272.818 210.161 272.783 209.876 272.713 209.726C272.633 209.556 272.503 209.471 272.323 209.471ZM266.248 204.641C266.248 203.221 266.828 202.511 267.988 202.511C269.138 202.511 269.713 203.221 269.713 204.641C269.713 205.361 269.563 205.901 269.263 206.261C268.973 206.621 268.548 206.801 267.988 206.801C267.428 206.801 266.998 206.621 266.698 206.261C266.398 205.901 266.248 205.361 266.248 204.641ZM267.598 203.771C267.518 203.961 267.478 204.251 267.478 204.641C267.478 205.031 267.518 205.321 267.598 205.511C267.678 205.691 267.808 205.781 267.988 205.781C268.188 205.781 268.323 205.691 268.393 205.511C268.463 205.341 268.498 205.051 268.498 204.641C268.498 204.231 268.463 203.941 268.393 203.771C268.313 203.601 268.178 203.516 267.988 203.516C267.808 203.516 267.678 203.601 267.598 203.771ZM268.948 212.966L268.018 212.666L271.348 202.211L272.278 202.526L268.948 212.966Z" fill="#464646"/>
<path d="M247.497 362.512V355.512H248.827L250.767 359.942L252.677 355.512H254.037V362.512H253.087V356.722L251.217 360.932H250.277L248.397 356.722V362.512H247.497ZM257.727 362.632C257.294 362.632 256.9 362.522 256.547 362.302C256.194 362.082 255.91 361.772 255.697 361.372C255.49 360.966 255.387 360.489 255.387 359.942C255.387 359.422 255.49 358.956 255.697 358.542C255.91 358.129 256.2 357.802 256.567 357.562C256.94 357.316 257.367 357.192 257.847 357.192C258.147 357.192 258.417 357.246 258.657 357.352C258.904 357.452 259.117 357.579 259.297 357.732V357.312H260.117V361.252C260.117 361.506 260.177 361.672 260.297 361.752C260.424 361.826 260.56 361.862 260.707 361.862L260.517 362.562C259.877 362.562 259.49 362.302 259.357 361.782C259.204 361.996 258.994 362.192 258.727 362.372C258.467 362.546 258.134 362.632 257.727 362.632ZM257.927 361.832C258.18 361.832 258.42 361.772 258.647 361.652C258.874 361.526 259.064 361.369 259.217 361.182V358.392C259.037 358.266 258.837 358.166 258.617 358.092C258.404 358.012 258.177 357.972 257.937 357.972C257.617 357.972 257.334 358.056 257.087 358.222C256.847 358.382 256.657 358.609 256.517 358.902C256.377 359.189 256.307 359.526 256.307 359.912C256.307 360.286 256.377 360.619 256.517 360.912C256.657 361.199 256.85 361.426 257.097 361.592C257.344 361.752 257.62 361.832 257.927 361.832ZM261.844 364.832C261.644 364.832 261.467 364.812 261.314 364.772C261.167 364.732 261.05 364.686 260.964 364.632L261.164 363.882C261.244 363.929 261.344 363.969 261.464 364.002C261.584 364.036 261.717 364.052 261.864 364.052C262.144 364.052 262.394 363.962 262.614 363.782C262.834 363.602 263.044 363.249 263.244 362.722L263.474 362.122H262.994L260.964 357.552L261.764 357.192L263.704 361.522L265.214 357.232L266.044 357.552L264.134 362.772C263.94 363.306 263.73 363.722 263.504 364.022C263.277 364.322 263.027 364.532 262.754 364.652C262.48 364.772 262.177 364.832 261.844 364.832Z" fill="#999999"/>
<path d="M206.133 362.612L205.353 360.612H202.113L201.333 362.592L200.523 362.262L203.263 355.512H204.303L207.003 362.262L206.133 362.612ZM202.413 359.812H205.043L203.733 356.452L202.413 359.812ZM208.092 364.712V358.642C208.092 358.416 208.036 358.256 207.922 358.162C207.816 358.062 207.676 358.012 207.502 358.012L207.692 357.312C208.306 357.312 208.689 357.556 208.842 358.042C208.909 357.942 209.016 357.826 209.162 357.692C209.316 357.559 209.502 357.442 209.722 357.342C209.949 357.242 210.206 357.192 210.492 357.192C210.892 357.192 211.266 357.299 211.612 357.512C211.966 357.719 212.249 358.022 212.462 358.422C212.676 358.816 212.782 359.296 212.782 359.862C212.782 360.416 212.676 360.902 212.462 361.322C212.249 361.736 211.969 362.059 211.622 362.292C211.282 362.519 210.912 362.632 210.512 362.632C210.206 362.632 209.919 362.572 209.652 362.452C209.386 362.326 209.166 362.182 208.992 362.022V364.712H208.092ZM210.332 361.832C210.786 361.832 211.152 361.656 211.432 361.302C211.719 360.942 211.862 360.472 211.862 359.892C211.862 359.492 211.789 359.149 211.642 358.862C211.502 358.576 211.312 358.356 211.072 358.202C210.839 358.049 210.579 357.972 210.292 357.972C210.006 357.972 209.746 358.046 209.512 358.192C209.286 358.332 209.112 358.486 208.992 358.652V361.212C209.166 361.392 209.366 361.542 209.592 361.662C209.819 361.776 210.066 361.832 210.332 361.832ZM214.035 362.512V357.312H214.905V358.442C214.992 358.222 215.108 358.019 215.255 357.832C215.402 357.639 215.585 357.486 215.805 357.372C216.025 357.252 216.282 357.192 216.575 357.192C216.675 357.192 216.775 357.199 216.875 357.212C216.975 357.219 217.058 357.232 217.125 357.252L216.855 358.182C216.728 358.129 216.578 358.102 216.405 358.102C216.158 358.102 215.922 358.172 215.695 358.312C215.475 358.452 215.292 358.669 215.145 358.962C215.005 359.256 214.935 359.629 214.935 360.082V362.512H214.035Z" fill="#999999"/>
<path d="M153.887 362.512V355.512H155.217L157.157 359.942L159.067 355.512H160.427V362.512H159.477V356.722L157.607 360.932H156.667L154.787 356.722V362.512H153.887ZM164.117 362.632C163.683 362.632 163.29 362.522 162.937 362.302C162.583 362.082 162.3 361.772 162.087 361.372C161.88 360.966 161.777 360.489 161.777 359.942C161.777 359.422 161.88 358.956 162.087 358.542C162.3 358.129 162.59 357.802 162.957 357.562C163.33 357.316 163.757 357.192 164.237 357.192C164.537 357.192 164.807 357.246 165.047 357.352C165.293 357.452 165.507 357.579 165.687 357.732V357.312H166.507V361.252C166.507 361.506 166.567 361.672 166.687 361.752C166.813 361.826 166.95 361.862 167.097 361.862L166.907 362.562C166.267 362.562 165.88 362.302 165.747 361.782C165.593 361.996 165.383 362.192 165.117 362.372C164.857 362.546 164.523 362.632 164.117 362.632ZM164.317 361.832C164.57 361.832 164.81 361.772 165.037 361.652C165.263 361.526 165.453 361.369 165.607 361.182V358.392C165.427 358.266 165.227 358.166 165.007 358.092C164.793 358.012 164.567 357.972 164.327 357.972C164.007 357.972 163.723 358.056 163.477 358.222C163.237 358.382 163.047 358.609 162.907 358.902C162.767 359.189 162.697 359.526 162.697 359.912C162.697 360.286 162.767 360.619 162.907 360.912C163.047 361.199 163.24 361.426 163.487 361.592C163.733 361.752 164.01 361.832 164.317 361.832ZM168.299 362.512V357.312H169.169V358.442C169.255 358.222 169.372 358.019 169.519 357.832C169.665 357.639 169.849 357.486 170.069 357.372C170.289 357.252 170.545 357.192 170.839 357.192C170.939 357.192 171.039 357.199 171.139 357.212C171.239 357.219 171.322 357.232 171.389 357.252L171.119 358.182C170.992 358.129 170.842 358.102 170.669 358.102C170.422 358.102 170.185 358.172 169.959 358.312C169.739 358.452 169.555 358.669 169.409 358.962C169.269 359.256 169.199 359.629 169.199 360.082V362.512H168.299Z" fill="#999999"/>
<path d="M107.959 362.512V355.512H112.109V356.332H108.909V358.472H111.579V359.252H108.909V362.512H107.959ZM114.793 362.632C114.046 362.632 113.453 362.396 113.013 361.922C112.579 361.442 112.363 360.772 112.363 359.912C112.363 359.392 112.459 358.929 112.653 358.522C112.853 358.109 113.129 357.786 113.483 357.552C113.836 357.312 114.246 357.192 114.713 357.192C115.213 357.192 115.626 357.302 115.953 357.522C116.286 357.736 116.536 358.026 116.703 358.392C116.869 358.759 116.953 359.162 116.953 359.602C116.953 359.836 116.943 360.062 116.923 360.282H113.283C113.343 360.769 113.513 361.149 113.793 361.422C114.073 361.696 114.443 361.832 114.903 361.832C115.203 361.832 115.473 361.802 115.713 361.742C115.953 361.676 116.183 361.592 116.403 361.492L116.613 362.262C116.373 362.369 116.103 362.456 115.803 362.522C115.503 362.596 115.166 362.632 114.793 362.632ZM113.273 359.552H116.123C116.123 359.046 115.996 358.656 115.743 358.382C115.489 358.109 115.139 357.972 114.693 357.972C114.306 357.972 113.986 358.109 113.733 358.382C113.479 358.649 113.326 359.039 113.273 359.552ZM120.492 362.632C120.192 362.632 119.909 362.579 119.642 362.472C119.382 362.359 119.166 362.229 118.992 362.082V362.512H118.152V355.112H119.052V357.852C119.186 357.699 119.379 357.552 119.632 357.412C119.892 357.266 120.199 357.192 120.552 357.192C120.952 357.192 121.326 357.299 121.672 357.512C122.026 357.719 122.309 358.022 122.522 358.422C122.736 358.816 122.842 359.296 122.842 359.862C122.842 360.276 122.776 360.652 122.642 360.992C122.509 361.332 122.329 361.626 122.102 361.872C121.882 362.112 121.632 362.299 121.352 362.432C121.072 362.566 120.786 362.632 120.492 362.632ZM120.252 361.832C120.579 361.832 120.866 361.752 121.112 361.592C121.366 361.432 121.562 361.206 121.702 360.912C121.849 360.619 121.922 360.279 121.922 359.892C121.922 359.492 121.849 359.149 121.702 358.862C121.562 358.576 121.372 358.356 121.132 358.202C120.899 358.049 120.639 357.972 120.352 357.972C120.066 357.972 119.806 358.046 119.572 358.192C119.346 358.332 119.172 358.486 119.052 358.652V361.432C119.206 361.552 119.386 361.649 119.592 361.722C119.799 361.796 120.019 361.832 120.252 361.832Z" fill="#999999"/>
<path d="M297.335 362.632C297.028 362.632 296.738 362.579 296.465 362.472C296.198 362.366 295.975 362.226 295.795 362.052L296.255 361.322C296.388 361.462 296.548 361.579 296.735 361.672C296.921 361.766 297.111 361.812 297.305 361.812C297.625 361.812 297.878 361.699 298.065 361.472C298.251 361.239 298.345 360.849 298.345 360.302V355.512H299.295V360.202C299.295 361.049 299.115 361.666 298.755 362.052C298.395 362.439 297.921 362.632 297.335 362.632ZM302.591 362.632C302.291 362.632 302.008 362.569 301.741 362.442C301.475 362.316 301.258 362.112 301.091 361.832C300.925 361.546 300.841 361.166 300.841 360.692V357.312H301.741V360.572C301.741 360.979 301.828 361.292 302.001 361.512C302.175 361.726 302.428 361.832 302.761 361.832C303.035 361.832 303.298 361.779 303.551 361.672C303.811 361.559 304.041 361.409 304.241 361.222V357.312H305.141V361.162C305.141 361.449 305.201 361.639 305.321 361.732C305.448 361.819 305.585 361.862 305.731 361.862L305.541 362.562C304.921 362.562 304.538 362.316 304.391 361.822C304.158 362.062 303.888 362.259 303.581 362.412C303.275 362.559 302.945 362.632 302.591 362.632ZM306.927 362.512V357.312H307.797V358.182C307.983 357.902 308.22 357.669 308.507 357.482C308.8 357.289 309.147 357.192 309.547 357.192C310.133 357.192 310.57 357.369 310.857 357.722C311.15 358.076 311.297 358.542 311.297 359.122V362.512H310.397V359.222C310.397 358.849 310.307 358.549 310.127 358.322C309.953 358.096 309.71 357.982 309.397 357.982C309.09 357.982 308.8 358.092 308.527 358.312C308.253 358.526 308.02 358.779 307.827 359.072V362.512H306.927Z" fill="#999999"/>
<path d="M61.9352 362.632C61.6285 362.632 61.3385 362.579 61.0652 362.472C60.7985 362.366 60.5752 362.226 60.3952 362.052L60.8552 361.322C60.9885 361.462 61.1485 361.579 61.3352 361.672C61.5219 361.766 61.7119 361.812 61.9052 361.812C62.2252 361.812 62.4785 361.699 62.6652 361.472C62.8519 361.239 62.9452 360.849 62.9452 360.302V355.512H63.8952V360.202C63.8952 361.049 63.7152 361.666 63.3552 362.052C62.9952 362.439 62.5219 362.632 61.9352 362.632ZM67.4821 362.632C67.0487 362.632 66.6554 362.522 66.3021 362.302C65.9487 362.082 65.6654 361.772 65.4521 361.372C65.2454 360.966 65.1421 360.489 65.1421 359.942C65.1421 359.422 65.2454 358.956 65.4521 358.542C65.6654 358.129 65.9554 357.802 66.3221 357.562C66.6954 357.316 67.1221 357.192 67.6021 357.192C67.9021 357.192 68.1721 357.246 68.4121 357.352C68.6587 357.452 68.8721 357.579 69.0521 357.732V357.312H69.8721V361.252C69.8721 361.506 69.9321 361.672 70.0521 361.752C70.1787 361.826 70.3154 361.862 70.4621 361.862L70.2721 362.562C69.6321 362.562 69.2454 362.302 69.1121 361.782C68.9587 361.996 68.7487 362.192 68.4821 362.372C68.2221 362.546 67.8887 362.632 67.4821 362.632ZM67.6821 361.832C67.9354 361.832 68.1754 361.772 68.4021 361.652C68.6287 361.526 68.8187 361.369 68.9721 361.182V358.392C68.7921 358.266 68.5921 358.166 68.3721 358.092C68.1587 358.012 67.9321 357.972 67.6921 357.972C67.3721 357.972 67.0887 358.056 66.8421 358.222C66.6021 358.382 66.4121 358.609 66.2721 358.902C66.1321 359.189 66.0621 359.526 66.0621 359.912C66.0621 360.286 66.1321 360.619 66.2721 360.912C66.4121 361.199 66.6054 361.426 66.8521 361.592C67.0987 361.752 67.3754 361.832 67.6821 361.832ZM71.664 362.512V357.312H72.534V358.182C72.7206 357.902 72.9573 357.669 73.244 357.482C73.5373 357.289 73.884 357.192 74.284 357.192C74.8706 357.192 75.3073 357.369 75.594 357.722C75.8873 358.076 76.034 358.542 76.034 359.122V362.512H75.134V359.222C75.134 358.849 75.044 358.549 74.864 358.322C74.6906 358.096 74.4473 357.982 74.134 357.982C73.8273 357.982 73.5373 358.092 73.264 358.312C72.9906 358.526 72.7573 358.779 72.564 359.072V362.512H71.664Z" fill="#999999"/>
<path d="M53.0904 334.962C52.3104 334.962 51.717 334.645 51.3104 334.012C50.9037 333.372 50.7004 332.478 50.7004 331.332C50.7004 330.178 50.907 329.288 51.3204 328.662C51.7404 328.035 52.337 327.722 53.1104 327.722C53.8904 327.722 54.4837 328.038 54.8904 328.672C55.297 329.305 55.5004 330.198 55.5004 331.352C55.5004 332.505 55.2904 333.395 54.8704 334.022C54.457 334.648 53.8637 334.962 53.0904 334.962ZM53.1004 334.142C53.4004 334.142 53.657 334.055 53.8704 333.882C54.0904 333.702 54.257 333.408 54.3704 333.002C54.4904 332.595 54.5504 332.048 54.5504 331.362C54.5504 330.442 54.4204 329.742 54.1604 329.262C53.907 328.782 53.5537 328.542 53.1004 328.542C52.8004 328.542 52.5404 328.632 52.3204 328.812C52.107 328.985 51.9404 329.275 51.8204 329.682C51.707 330.082 51.6504 330.628 51.6504 331.322C51.6504 332.242 51.777 332.942 52.0304 333.422C52.2904 333.902 52.647 334.142 53.1004 334.142Z" fill="#999999"/>
<path d="M44.9838 293.888C44.9638 293.768 44.9538 293.645 44.9538 293.518C44.9538 293.085 45.0272 292.698 45.1738 292.358C45.3272 292.012 45.5238 291.698 45.7638 291.418C46.0038 291.132 46.2572 290.868 46.5238 290.628C46.7972 290.382 47.0505 290.148 47.2838 289.928C47.5238 289.702 47.7205 289.475 47.8738 289.248C48.0272 289.022 48.1038 288.785 48.1038 288.538C48.1038 288.258 48.0005 288.028 47.7938 287.848C47.5872 287.662 47.3205 287.568 46.9938 287.568C46.7138 287.568 46.4572 287.625 46.2238 287.738C45.9972 287.845 45.7838 287.992 45.5838 288.178L45.0838 287.568C45.3505 287.328 45.6438 287.135 45.9638 286.988C46.2905 286.842 46.6672 286.768 47.0938 286.768C47.4872 286.768 47.8305 286.845 48.1238 286.998C48.4172 287.145 48.6438 287.348 48.8038 287.608C48.9705 287.868 49.0538 288.158 49.0538 288.478C49.0538 288.798 48.9838 289.095 48.8438 289.368C48.7038 289.642 48.5238 289.898 48.3038 290.138C48.0838 290.378 47.8472 290.612 47.5938 290.838C47.3405 291.058 47.0972 291.285 46.8638 291.518C46.6305 291.752 46.4305 291.995 46.2638 292.248C46.1038 292.502 46.0038 292.775 45.9638 293.068H49.0438V293.888H44.9838ZM52.7999 294.008C52.3932 294.008 52.0432 293.965 51.7499 293.878C51.4566 293.785 51.1899 293.655 50.9499 293.488L51.4199 292.718C51.6066 292.852 51.8132 292.965 52.0399 293.058C52.2666 293.145 52.5232 293.188 52.8099 293.188C53.2566 293.188 53.6166 293.062 53.8899 292.808C54.1632 292.548 54.2999 292.218 54.2999 291.818C54.2999 291.405 54.1566 291.068 53.8699 290.808C53.5899 290.542 53.1866 290.408 52.6599 290.408H51.4199V286.888H54.8799V287.698H52.2699V289.598H52.7699C53.2899 289.598 53.7332 289.688 54.0999 289.868C54.4732 290.048 54.7566 290.298 54.9499 290.618C55.1499 290.938 55.2499 291.305 55.2499 291.718C55.2499 292.165 55.1466 292.562 54.9399 292.908C54.7399 293.248 54.4566 293.518 54.0899 293.718C53.7232 293.912 53.2932 294.008 52.7999 294.008Z" fill="#999999"/>
<path d="M46.8038 253.056C46.3972 253.056 46.0472 253.012 45.7538 252.926C45.4605 252.832 45.1938 252.702 44.9538 252.536L45.4238 251.766C45.6105 251.899 45.8172 252.012 46.0438 252.106C46.2705 252.192 46.5272 252.236 46.8138 252.236C47.2605 252.236 47.6205 252.109 47.8938 251.856C48.1672 251.596 48.3038 251.266 48.3038 250.866C48.3038 250.452 48.1605 250.116 47.8738 249.856C47.5938 249.589 47.1905 249.456 46.6638 249.456H45.4238V245.936H48.8838V246.746H46.2738V248.646H46.7738C47.2938 248.646 47.7372 248.736 48.1038 248.916C48.4772 249.096 48.7605 249.346 48.9538 249.666C49.1538 249.986 49.2538 250.352 49.2538 250.766C49.2538 251.212 49.1505 251.609 48.9438 251.956C48.7438 252.296 48.4605 252.566 48.0938 252.766C47.7272 252.959 47.2972 253.056 46.8038 253.056ZM53.0899 253.056C52.3099 253.056 51.7166 252.739 51.3099 252.106C50.9032 251.466 50.6999 250.572 50.6999 249.426C50.6999 248.272 50.9066 247.382 51.3199 246.756C51.7399 246.129 52.3366 245.816 53.1099 245.816C53.8899 245.816 54.4832 246.132 54.8899 246.766C55.2966 247.399 55.4999 248.292 55.4999 249.446C55.4999 250.599 55.2899 251.489 54.8699 252.116C54.4566 252.742 53.8632 253.056 53.0899 253.056ZM53.0999 252.236C53.3999 252.236 53.6566 252.149 53.8699 251.976C54.0899 251.796 54.2566 251.502 54.3699 251.096C54.4899 250.689 54.5499 250.142 54.5499 249.456C54.5499 248.536 54.4199 247.836 54.1599 247.356C53.9066 246.876 53.5532 246.636 53.0999 246.636C52.7999 246.636 52.5399 246.726 52.3199 246.906C52.1066 247.079 51.9399 247.369 51.8199 247.776C51.7066 248.176 51.6499 248.722 51.6499 249.416C51.6499 250.336 51.7766 251.036 52.0299 251.516C52.2899 251.996 52.6466 252.236 53.0999 252.236Z" fill="#999999"/>
<path d="M46.0538 211.982C46.0538 211.216 46.1038 210.536 46.2038 209.942C46.3105 209.342 46.4605 208.802 46.6538 208.322C46.8538 207.842 47.1005 207.399 47.3938 206.992C47.6872 206.586 48.0238 206.189 48.4038 205.802H45.0338V204.982H49.4738V205.702C49.0138 206.149 48.6305 206.586 48.3238 207.012C48.0172 207.432 47.7705 207.879 47.5838 208.352C47.3972 208.819 47.2638 209.349 47.1838 209.942C47.1038 210.529 47.0638 211.209 47.0638 211.982H46.0538ZM52.7999 212.102C52.3932 212.102 52.0432 212.059 51.7499 211.972C51.4566 211.879 51.1899 211.749 50.9499 211.582L51.4199 210.812C51.6066 210.946 51.8132 211.059 52.0399 211.152C52.2666 211.239 52.5232 211.282 52.8099 211.282C53.2566 211.282 53.6166 211.156 53.8899 210.902C54.1632 210.642 54.2999 210.312 54.2999 209.912C54.2999 209.499 54.1566 209.162 53.8699 208.902C53.5899 208.636 53.1866 208.502 52.6599 208.502H51.4199V204.982H54.8799V205.792H52.2699V207.692H52.7699C53.2899 207.692 53.7332 207.782 54.0999 207.962C54.4732 208.142 54.7566 208.392 54.9499 208.712C55.1499 209.032 55.2499 209.399 55.2499 209.812C55.2499 210.259 55.1466 210.656 54.9399 211.002C54.7399 211.342 54.4566 211.612 54.0899 211.812C53.7232 212.006 53.2932 212.102 52.7999 212.102Z" fill="#999999"/>
<path d="M39.5477 171.029V170.229H40.9777V165.179L39.6377 166.189L39.1477 165.519L41.2177 164.029H41.8777V170.229H43.0677V171.029H39.5477ZM47.0938 171.149C46.3138 171.149 45.7205 170.833 45.3138 170.199C44.9072 169.559 44.7038 168.666 44.7038 167.519C44.7038 166.366 44.9105 165.476 45.3238 164.849C45.7438 164.223 46.3405 163.909 47.1138 163.909C47.8938 163.909 48.4872 164.226 48.8938 164.859C49.3005 165.493 49.5038 166.386 49.5038 167.539C49.5038 168.693 49.2938 169.583 48.8738 170.209C48.4605 170.836 47.8672 171.149 47.0938 171.149ZM47.1038 170.329C47.4038 170.329 47.6605 170.243 47.8738 170.069C48.0938 169.889 48.2605 169.596 48.3738 169.189C48.4938 168.783 48.5538 168.236 48.5538 167.549C48.5538 166.629 48.4238 165.929 48.1638 165.449C47.9105 164.969 47.5572 164.729 47.1038 164.729C46.8038 164.729 46.5438 164.819 46.3238 164.999C46.1105 165.173 45.9438 165.463 45.8238 165.869C45.7105 166.269 45.6538 166.816 45.6538 167.509C45.6538 168.429 45.7805 169.129 46.0338 169.609C46.2938 170.089 46.6505 170.329 47.1038 170.329ZM53.0899 171.149C52.3099 171.149 51.7166 170.833 51.3099 170.199C50.9032 169.559 50.6999 168.666 50.6999 167.519C50.6999 166.366 50.9066 165.476 51.3199 164.849C51.7399 164.223 52.3366 163.909 53.1099 163.909C53.8899 163.909 54.4832 164.226 54.8899 164.859C55.2966 165.493 55.4999 166.386 55.4999 167.539C55.4999 168.693 55.2899 169.583 54.8699 170.209C54.4566 170.836 53.8632 171.149 53.0899 171.149ZM53.0999 170.329C53.3999 170.329 53.6566 170.243 53.8699 170.069C54.0899 169.889 54.2566 169.596 54.3699 169.189C54.4899 168.783 54.5499 168.236 54.5499 167.549C54.5499 166.629 54.4199 165.929 54.1599 165.449C53.9066 164.969 53.5532 164.729 53.0999 164.729C52.7999 164.729 52.5399 164.819 52.3199 164.999C52.1066 165.173 51.9399 165.463 51.8199 165.869C51.7066 166.269 51.6499 166.816 51.6499 167.509C51.6499 168.429 51.7766 169.129 52.0299 169.609C52.2899 170.089 52.6466 170.329 53.0999 170.329Z" fill="#999999"/>
<path d="M36.2195 61.2725H76.5195V73.2725H47.0195L45.3195 87.5725C49.4529 85.9725 53.3862 85.1725 57.1195 85.1725C71.3862 85.1725 78.5195 91.8058 78.5195 105.072C78.5195 112.539 76.5529 118.306 72.6195 122.372C68.7529 126.439 63.1862 128.472 55.9195 128.472C54.3862 128.472 52.7195 128.372 50.9195 128.172C49.1195 128.039 47.3195 127.839 45.5195 127.572C43.7195 127.306 41.9862 127.006 40.3195 126.672C38.7195 126.339 37.3195 126.006 36.1195 125.672L32.5195 124.772L34.0195 114.572C38.0862 115.239 41.7862 115.739 45.1195 116.072C48.4529 116.339 51.4862 116.472 54.2195 116.472C57.4862 116.472 59.9862 115.606 61.7195 113.872C63.4529 112.139 64.3195 109.639 64.3195 106.372C64.3195 103.172 63.5862 100.839 62.1195 99.3725C60.6529 97.9058 58.5862 97.1725 55.9195 97.1725C51.3195 97.1725 47.3862 97.6058 44.1195 98.4725L42.6195 98.8725L34.4195 96.9725L36.2195 61.2725ZM131.777 115.272V127.272H88.9766V115.572L103.077 101.272C105.61 98.6725 107.71 96.4391 109.377 94.5725C111.11 92.7058 112.477 91.0058 113.477 89.4725C114.543 87.8725 115.31 86.4058 115.777 85.0725C116.243 83.6725 116.477 82.2058 116.477 80.6725C116.477 77.5391 115.643 75.3725 113.977 74.1725C112.377 72.9058 110.077 72.2725 107.077 72.2725C102.677 72.2725 97.8099 72.6725 92.4766 73.4725L90.0766 73.7725L89.3766 63.0725C95.9099 61.0725 102.677 60.0725 109.677 60.0725C123.677 60.0725 130.677 66.3725 130.677 78.9725C130.677 81.4391 130.41 83.7058 129.877 85.7725C129.41 87.7725 128.61 89.7725 127.477 91.7725C126.343 93.7725 124.81 95.8058 122.877 97.8725C121.01 99.9391 118.677 102.272 115.877 104.872L104.377 115.272H131.777ZM150.58 121.728C150.58 117.892 152.12 115.974 155.2 115.974C158.252 115.974 159.778 117.906 159.778 121.77C159.778 123.73 159.372 125.214 158.56 126.222C157.748 127.202 156.614 127.692 155.158 127.692C153.702 127.692 152.568 127.202 151.756 126.222C150.972 125.242 150.58 123.744 150.58 121.728ZM153.1 121.728C153.1 124.276 153.786 125.55 155.158 125.55C155.942 125.55 156.488 125.242 156.796 124.626C157.104 124.01 157.258 123.058 157.258 121.77C157.258 120.482 157.104 119.558 156.796 118.998C156.488 118.41 155.956 118.116 155.2 118.116C154.444 118.116 153.898 118.41 153.562 118.998C153.254 119.558 153.1 120.468 153.1 121.728ZM138.61 104.928C138.61 101.064 140.15 99.1325 143.23 99.1325C146.31 99.1325 147.85 101.064 147.85 104.928C147.85 106.944 147.444 108.442 146.632 109.422C145.82 110.374 144.686 110.85 143.23 110.85C141.774 110.85 140.64 110.374 139.828 109.422C139.016 108.442 138.61 106.944 138.61 104.928ZM141.172 104.928C141.172 107.448 141.872 108.708 143.272 108.708C144.644 108.708 145.33 107.448 145.33 104.928C145.33 103.668 145.162 102.744 144.826 102.156C144.518 101.568 144 101.274 143.272 101.274C142.516 101.274 141.97 101.568 141.634 102.156C141.326 102.744 141.172 103.668 141.172 104.928ZM145.96 128.028L143.944 127.44L152.554 98.6705L154.57 99.3425L145.96 128.028Z" fill="#F5EDE5"/>
</g>
<path d="M48.9476 35.6265H45.6356V28.8585H39.5636V35.6265H36.2516V19.3065H39.5636V25.9785H45.6356V19.3065H48.9476V35.6265ZM59.2858 32.6025V23.6265H62.5018V35.6265H59.3098V34.9545C58.1738 35.5945 57.1738 35.9145 56.3098 35.9145C55.4778 35.9145 54.7898 35.8025 54.2458 35.5785C53.7018 35.3545 53.2698 35.0025 52.9498 34.5225C52.6298 34.0425 52.4058 33.4265 52.2778 32.6745C52.1498 31.9065 52.0858 30.9865 52.0858 29.9145V23.6265H55.3018V29.9625C55.3018 30.5545 55.3178 31.0505 55.3498 31.4505C55.3978 31.8345 55.4778 32.1465 55.5898 32.3865C55.7178 32.6265 55.8858 32.7945 56.0938 32.8905C56.3178 32.9865 56.6138 33.0345 56.9818 33.0345C57.6698 33.0345 58.3338 32.9225 58.9738 32.6985L59.2858 32.6025ZM68.6874 26.6505V35.6265H65.4714V23.6265H68.6634V24.2985C69.7514 23.6585 70.6954 23.3385 71.4954 23.3385C72.7914 23.3385 73.7914 23.7145 74.4954 24.4665C75.9674 23.7145 77.3114 23.3385 78.5274 23.3385C79.3274 23.3385 79.9914 23.4505 80.5194 23.6745C81.0634 23.8985 81.4954 24.2505 81.8154 24.7305C82.1514 25.1945 82.3914 25.7945 82.5354 26.5305C82.6794 27.2505 82.7514 28.1145 82.7514 29.1225V35.6265H79.5354V29.2185C79.5354 28.1945 79.4234 27.4425 79.1994 26.9625C78.9754 26.4665 78.5274 26.2185 77.8554 26.2185C77.3754 26.2185 76.7514 26.3305 75.9834 26.5545L75.6234 26.6745C75.6554 27.2825 75.6794 27.8105 75.6954 28.2585C75.7114 28.7065 75.7194 29.0905 75.7194 29.4105V35.6265H72.5034V29.4585C72.5034 28.8665 72.4794 28.3625 72.4314 27.9465C72.3994 27.5305 72.3194 27.1945 72.1914 26.9385C72.0794 26.6825 71.9114 26.4985 71.6874 26.3865C71.4634 26.2745 71.1754 26.2185 70.8234 26.2185C70.2154 26.2185 69.5994 26.3305 68.9754 26.5545L68.6874 26.6505ZM88.8202 35.6265H85.6042V23.6265H88.8202V35.6265ZM88.8202 22.0905H85.6042V18.8265H88.8202V22.0905ZM98.7757 18.8265H101.992V35.6265H98.7997V35.1225C97.6797 35.6505 96.7117 35.9145 95.8957 35.9145C95.0317 35.9145 94.2957 35.7945 93.6877 35.5545C93.0957 35.2985 92.6157 34.9145 92.2477 34.4025C91.8797 33.8745 91.6157 33.2185 91.4557 32.4345C91.2957 31.6345 91.2157 30.6905 91.2157 29.6025C91.2157 27.4105 91.6237 25.8185 92.4397 24.8265C93.2557 23.8345 94.5037 23.3385 96.1837 23.3385C96.4397 23.3385 96.7437 23.3625 97.0957 23.4105C97.4477 23.4425 97.8557 23.4985 98.3197 23.5785L98.7757 23.6745V18.8265ZM98.4397 32.7465L98.7757 32.6745V26.3625C97.9277 26.2025 97.1437 26.1225 96.4237 26.1225C95.1277 26.1225 94.4797 27.2745 94.4797 29.5785C94.4797 30.8265 94.6237 31.7145 94.9117 32.2425C95.1997 32.7705 95.6797 33.0345 96.3517 33.0345C97.0077 33.0345 97.7037 32.9385 98.4397 32.7465ZM108.18 35.6265H104.964V23.6265H108.18V35.6265ZM108.18 22.0905H104.964V18.8265H108.18V22.0905ZM117.799 23.6265V26.3625H114.847V31.2825C114.847 31.5225 114.847 31.7305 114.847 31.9065C114.863 32.0665 114.879 32.1945 114.895 32.2905C114.927 32.4985 115.015 32.6745 115.159 32.8185C115.303 32.9625 115.535 33.0345 115.855 33.0345L117.679 32.9865L117.823 35.5545C116.751 35.7945 115.935 35.9145 115.375 35.9145C114.655 35.9145 114.055 35.8345 113.575 35.6745C113.095 35.5305 112.711 35.2825 112.423 34.9305C112.135 34.5785 111.927 34.1145 111.799 33.5385C111.687 32.9465 111.631 32.2185 111.631 31.3545V26.3625H110.215V23.6265H111.631V20.2905H114.847V23.6265H117.799ZM121.741 35.6265L118.789 23.6265H121.957L124.141 32.8905H124.693L126.877 23.6265H130.045L125.821 40.6665H122.677L123.997 35.6265H121.741Z" fill="white"/>
<defs>
<filter id="filter0_d_338_563" x="5" y="0" width="342.18" height="407" filterUnits="userSpaceOnUse" color-interpolation-filters="sRGB">
<feFlood flood-opacity="0" result="BackgroundImageFix"/>
<feColorMatrix in="SourceAlpha" type="matrix" values="0 0 0 0 0 0 0 0 0 0 0 0 0 0 0 0 0 0 127 0" result="hardAlpha"/>
<feOffset dy="4"/>
<feGaussianBlur stdDeviation="2"/>
<feComposite in2="hardAlpha" operator="out"/>
<feColorMatrix type="matrix" values="0 0 0 0 0 0 0 0 0 0 0 0 0 0 0 0 0 0 0.25 0"/>
<feBlend mode="normal" in2="BackgroundImageFix" result="effect1_dropShadow_338_563"/>
<feBlend mode="normal" in="SourceGraphic" in2="effect1_dropShadow_338_563" result="shape"/>
</filter>
<filter id="filter1_dd_338_563" x="-12.8984" y="47.8794" width="376.294" height="407.12" filterUnits="userSpaceOnUse" color-interpolation-filters="sRGB">
<feFlood flood-opacity="0" result="BackgroundImageFix"/>
<feColorMatrix in="SourceAlpha" type="matrix" values="0 0 0 0 0 0 0 0 0 0 0 0 0 0 0 0 0 0 127 0" result="hardAlpha"/>
<feOffset dy="24"/>
<feGaussianBlur stdDeviation="16"/>
<feColorMatrix type="matrix" values="0 0 0 0 0.196487 0 0 0 0 0.196487 0 0 0 0 0.279476 0 0 0 0.08 0"/>
<feBlend mode="multiply" in2="BackgroundImageFix" result="effect1_dropShadow_338_563"/>
<feColorMatrix in="SourceAlpha" type="matrix" values="0 0 0 0 0 0 0 0 0 0 0 0 0 0 0 0 0 0 127 0" result="hardAlpha"/>
<feOffset dy="16"/>
<feGaussianBlur stdDeviation="8"/>
<feColorMatrix type="matrix" values="0 0 0 0 0.196487 0 0 0 0 0.196487 0 0 0 0 0.279476 0 0 0 0.08 0"/>
<feBlend mode="multiply" in2="effect1_dropShadow_338_563" result="effect2_dropShadow_338_563"/>
<feBlend mode="normal" in="SourceGraphic" in2="effect2_dropShadow_338_563" result="shape"/>
</filter>
<filter id="filter2_dd_338_563" x="246.828" y="257.452" width="21.4531" height="23.4958" filterUnits="userSpaceOnUse" color-interpolation-filters="sRGB">
<feFlood flood-opacity="0" result="BackgroundImageFix"/>
<feColorMatrix in="SourceAlpha" type="matrix" values="0 0 0 0 0 0 0 0 0 0 0 0 0 0 0 0 0 0 127 0" result="hardAlpha"/>
<feOffset dy="2"/>
<feGaussianBlur stdDeviation="2"/>
<feColorMatrix type="matrix" values="0 0 0 0 0.196487 0 0 0 0 0.196487 0 0 0 0 0.279476 0 0 0 0.06 0"/>
<feBlend mode="multiply" in2="BackgroundImageFix" result="effect1_dropShadow_338_563"/>
<feColorMatrix in="SourceAlpha" type="matrix" values="0 0 0 0 0 0 0 0 0 0 0 0 0 0 0 0 0 0 127 0" result="hardAlpha"/>
<feOffset dy="2"/>
<feGaussianBlur stdDeviation="1"/>
<feColorMatrix type="matrix" values="0 0 0 0 0.196487 0 0 0 0 0.196487 0 0 0 0 0.279476 0 0 0 0.06 0"/>
<feBlend mode="multiply" in2="effect1_dropShadow_338_563" result="effect2_dropShadow_338_563"/>
<feBlend mode="normal" in="SourceGraphic" in2="effect2_dropShadow_338_563" result="shape"/>
</filter>
<filter id="filter3_dd_338_563" x="213.521" y="183.508" width="88.0684" height="84.624" filterUnits="userSpaceOnUse" color-interpolation-filters="sRGB">
<feFlood flood-opacity="0" result="BackgroundImageFix"/>
<feColorMatrix in="SourceAlpha" type="matrix" values="0 0 0 0 0 0 0 0 0 0 0 0 0 0 0 0 0 0 127 0" result="hardAlpha"/>
<feOffset dy="4"/>
<feGaussianBlur stdDeviation="4"/>
<feColorMatrix type="matrix" values="0 0 0 0 0.196487 0 0 0 0 0.196487 0 0 0 0 0.279476 0 0 0 0.06 0"/>
<feBlend mode="multiply" in2="BackgroundImageFix" result="effect1_dropShadow_338_563"/>
<feColorMatrix in="SourceAlpha" type="matrix" values="0 0 0 0 0 0 0 0 0 0 0 0 0 0 0 0 0 0 127 0" result="hardAlpha"/>
<feOffset dy="4"/>
<feGaussianBlur stdDeviation="2"/>
<feColorMatrix type="matrix" values="0 0 0 0 0.196487 0 0 0 0 0.196487 0 0 0 0 0.279476 0 0 0 0.08 0"/>
<feBlend mode="multiply" in2="effect1_dropShadow_338_563" result="effect2_dropShadow_338_563"/>
<feBlend mode="normal" in="SourceGraphic" in2="effect2_dropShadow_338_563" result="shape"/>
</filter>
</defs>
</svg>
