<svg width="15" height="14" viewBox="0 0 15 14" fill="none" xmlns="http://www.w3.org/2000/svg">
<g id="Leaf" clip-path="url(#clip0_284_223)">
<path id="icon" fill-rule="evenodd" clip-rule="evenodd" d="M4.10227 0.082531C3.87742 0.00506774 3.6368 -0.0220393 3.39904 0.00342057C3.15399 0.029662 2.91894 0.111002 2.71325 0.240784C2.50755 0.370567 2.33708 0.545095 2.2159 0.750037C2.09633 0.952258 2.02816 1.17836 2.0168 1.41021C1.93039 2.49484 1.86655 4.17824 2.06929 5.92104C2.27099 7.65496 2.743 9.50891 3.77584 10.8823C4.84635 12.3628 6.37463 13.0205 7.79568 13.2771C9.20728 13.5319 10.5418 13.3979 11.302 13.2734C11.5128 13.2428 11.7165 13.1791 11.9049 13.0854C10.7701 10.1873 8.64021 6.99997 5.49064 4.23073C5.23552 4.00641 5.21926 3.6272 5.45433 3.38375C5.68941 3.1403 6.08679 3.12479 6.34191 3.34911C9.42901 6.06341 11.5954 9.17557 12.8473 12.0945C13.2202 11.4378 13.6863 10.4486 13.8907 9.30768C14.1328 7.95631 14.0102 6.36896 12.9084 4.88797C11.8907 3.51574 10.2021 2.46424 8.5451 1.68856C6.88539 0.911602 5.19786 0.384328 4.10227 0.082531Z" fill="#F4EBE2"/>
</g>
<defs>
<clipPath id="clip0_284_223">
<rect width="14.0704" height="13.4267" fill="white" transform="translate(0.929688 -0.00537109)"/>
</clipPath>
</defs>
</svg>
