<svg width="15" height="14" viewBox="0 0 15 14" fill="none" xmlns="http://www.w3.org/2000/svg">
<g id="location_on" opacity="0.65">
<path id="icon" d="M7.64632 12.8332C7.51021 12.8332 7.39354 12.7943 7.29632 12.7165C7.1991 12.6387 7.12618 12.5366 7.07757 12.4103C6.89285 11.8658 6.65952 11.3554 6.37757 10.879C6.10535 10.4026 5.72132 9.84359 5.22549 9.20192C4.72966 8.56025 4.32618 7.94775 4.01507 7.36442C3.71368 6.78109 3.56299 6.07623 3.56299 5.24984C3.56299 4.11234 3.95674 3.14984 4.74424 2.36234C5.54146 1.56511 6.50882 1.1665 7.64632 1.1665C8.78382 1.1665 9.74632 1.56511 10.5338 2.36234C11.331 3.14984 11.7297 4.11234 11.7297 5.24984C11.7297 6.13456 11.5595 6.87345 11.2192 7.4665C10.8887 8.04984 10.5047 8.62831 10.0672 9.20192C9.54215 9.90192 9.14354 10.4853 8.87132 10.9519C8.60882 11.4089 8.39007 11.895 8.21507 12.4103C8.16646 12.5464 8.08868 12.6533 7.98174 12.7311C7.88452 12.7991 7.77271 12.8332 7.64632 12.8332ZM7.64632 6.70817C8.05466 6.70817 8.39979 6.5672 8.68174 6.28525C8.96368 6.00331 9.10465 5.65817 9.10465 5.24984C9.10465 4.8415 8.96368 4.49636 8.68174 4.21442C8.39979 3.93248 8.05466 3.7915 7.64632 3.7915C7.23799 3.7915 6.89285 3.93248 6.61091 4.21442C6.32896 4.49636 6.18799 4.8415 6.18799 5.24984C6.18799 5.65817 6.32896 6.00331 6.61091 6.28525C6.89285 6.5672 7.23799 6.70817 7.64632 6.70817Z" fill="#FEF7FF"/>
</g>
</svg>
