<svg width="37" height="37" viewBox="0 0 37 37" fill="none" xmlns="http://www.w3.org/2000/svg">
<g id="Logout">
<path id="tone" d="M15.4168 30.8335C13.714 30.8335 12.3335 29.453 12.3335 27.7502L12.3335 9.25016C12.3335 7.54728 13.714 6.16683 15.4168 6.16683L27.7502 6.16683C29.453 6.16683 30.8335 7.54728 30.8335 9.25016L30.8335 27.7502C30.8335 29.453 29.453 30.8335 27.7502 30.8335L15.4168 30.8335Z" fill="black" fill-opacity="0.15"/>
<path id="shape" d="M23.1248 6.1665H27.7498C29.4527 6.1665 30.8332 7.54696 30.8332 9.24984V27.7498C30.8332 29.4527 29.4527 30.8332 27.7498 30.8332H23.1248M12.3332 12.3332L6.1665 18.4998M6.1665 18.4998L12.3332 24.6665M6.1665 18.4998L24.6665 18.4998" stroke="#F5EDE5" stroke-width="2" stroke-linecap="round" stroke-linejoin="round"/>
</g>
</svg>
