<svg width="343" height="407" viewBox="0 0 343 407" fill="none" xmlns="http://www.w3.org/2000/svg">
<g filter="url(#filter0_d_10_133)">
<rect x="4" width="334.18" height="399" rx="29" fill="#142B16"/>
</g>
<line opacity="0.5" x1="35.0679" y1="179.893" x2="314" y2="179.893" stroke="#B1B1B1" stroke-width="0.5"/>
<line opacity="0.5" x1="35.0679" y1="341.454" x2="314" y2="341.454" stroke="#B1B1B1" stroke-width="0.5"/>
<path d="M190.439 284.008C202.708 285.591 228.306 287.035 234.738 292.147V341.126H35.0927V235.029C50.9242 238.657 83.2798 247.397 86.0503 253.334C89.5134 260.755 147.397 259.766 159.271 275.102C171.145 290.439 175.102 282.029 190.439 284.008Z" fill="url(#paint0_linear_10_133)"/>
<path d="M35.1936 50.3519V33.5519H42.1056C43.1616 33.5519 44.0896 33.7679 44.8896 34.1999C45.7056 34.6159 46.3376 35.2079 46.7856 35.9759C47.2496 36.7439 47.4816 37.6559 47.4816 38.7119V39.0479C47.4816 40.0879 47.2416 40.9999 46.7616 41.7839C46.2976 42.5519 45.6576 43.1519 44.8416 43.5839C44.0416 43.9999 43.1296 44.2079 42.1056 44.2079H38.3616V50.3519H35.1936ZM38.3616 41.3279H41.7936C42.5456 41.3279 43.1536 41.1199 43.6176 40.7039C44.0816 40.2879 44.3136 39.7199 44.3136 38.9999V38.7599C44.3136 38.0399 44.0816 37.4719 43.6176 37.0559C43.1536 36.6399 42.5456 36.4319 41.7936 36.4319H38.3616V41.3279ZM55.1567 50.6879C53.9727 50.6879 52.9087 50.4479 51.9647 49.9679C51.0207 49.4879 50.2767 48.7919 49.7327 47.8799C49.1887 46.9679 48.9167 45.8719 48.9167 44.5919V44.2079C48.9167 42.9279 49.1887 41.8319 49.7327 40.9199C50.2767 40.0079 51.0207 39.3119 51.9647 38.8319C52.9087 38.3519 53.9727 38.1119 55.1567 38.1119C56.3407 38.1119 57.4047 38.3519 58.3487 38.8319C59.2927 39.3119 60.0367 40.0079 60.5807 40.9199C61.1247 41.8319 61.3967 42.9279 61.3967 44.2079V44.5919C61.3967 45.8719 61.1247 46.9679 60.5807 47.8799C60.0367 48.7919 59.2927 49.4879 58.3487 49.9679C57.4047 50.4479 56.3407 50.6879 55.1567 50.6879ZM55.1567 47.9999C56.0847 47.9999 56.8527 47.7039 57.4607 47.1119C58.0687 46.5039 58.3727 45.6399 58.3727 44.5199V44.2799C58.3727 43.1599 58.0687 42.3039 57.4607 41.7119C56.8687 41.1039 56.1007 40.7999 55.1567 40.7999C54.2287 40.7999 53.4607 41.1039 52.8527 41.7119C52.2447 42.3039 51.9407 43.1599 51.9407 44.2799V44.5199C51.9407 45.6399 52.2447 46.5039 52.8527 47.1119C53.4607 47.7039 54.2287 47.9999 55.1567 47.9999ZM64.1881 50.3519V33.5519H67.2121V50.3519H64.1881ZM70.5631 50.3519V33.5519H73.5871V50.3519H70.5631ZM81.4741 50.5439C80.5461 50.5439 79.7301 50.3359 79.0261 49.9199C78.3381 49.4879 77.8021 48.8959 77.4181 48.1439C77.0341 47.3919 76.8421 46.5279 76.8421 45.5519V38.4479H79.8661V45.3119C79.8661 46.2079 80.0821 46.8799 80.5141 47.3279C80.9621 47.7759 81.5941 47.9999 82.4101 47.9999C83.3381 47.9999 84.0581 47.6959 84.5701 47.0879C85.0821 46.4639 85.3381 45.5999 85.3381 44.4959V38.4479H88.3621V50.3519H85.3861V48.7919H84.9541C84.7621 49.1919 84.4021 49.5839 83.8741 49.9679C83.3461 50.3519 82.5461 50.5439 81.4741 50.5439ZM96.2871 50.3519C95.5031 50.3519 94.8631 50.1119 94.3671 49.6319C93.8871 49.1359 93.6471 48.4799 93.6471 47.6639V40.9439H90.6711V38.4479H93.6471V34.7519H96.6711V38.4479H99.9351V40.9439H96.6711V47.1359C96.6711 47.6159 96.8951 47.8559 97.3431 47.8559H99.6471V50.3519H96.2871ZM102.672 50.3519V38.4479H105.696V50.3519H102.672ZM104.184 37.0559C103.64 37.0559 103.176 36.8799 102.792 36.5279C102.424 36.1759 102.24 35.7119 102.24 35.1359C102.24 34.5599 102.424 34.0959 102.792 33.7439C103.176 33.3919 103.64 33.2159 104.184 33.2159C104.744 33.2159 105.208 33.3919 105.576 33.7439C105.944 34.0959 106.128 34.5599 106.128 35.1359C106.128 35.7119 105.944 36.1759 105.576 36.5279C105.208 36.8799 104.744 37.0559 104.184 37.0559ZM114.711 50.6879C113.527 50.6879 112.463 50.4479 111.519 49.9679C110.575 49.4879 109.831 48.7919 109.287 47.8799C108.743 46.9679 108.471 45.8719 108.471 44.5919V44.2079C108.471 42.9279 108.743 41.8319 109.287 40.9199C109.831 40.0079 110.575 39.3119 111.519 38.8319C112.463 38.3519 113.527 38.1119 114.711 38.1119C115.895 38.1119 116.959 38.3519 117.903 38.8319C118.847 39.3119 119.591 40.0079 120.135 40.9199C120.679 41.8319 120.951 42.9279 120.951 44.2079V44.5919C120.951 45.8719 120.679 46.9679 120.135 47.8799C119.591 48.7919 118.847 49.4879 117.903 49.9679C116.959 50.4479 115.895 50.6879 114.711 50.6879ZM114.711 47.9999C115.639 47.9999 116.407 47.7039 117.015 47.1119C117.623 46.5039 117.927 45.6399 117.927 44.5199V44.2799C117.927 43.1599 117.623 42.3039 117.015 41.7119C116.423 41.1039 115.655 40.7999 114.711 40.7999C113.783 40.7999 113.015 41.1039 112.407 41.7119C111.799 42.3039 111.495 43.1599 111.495 44.2799V44.5199C111.495 45.6399 111.799 46.5039 112.407 47.1119C113.015 47.7039 113.783 47.9999 114.711 47.9999ZM123.743 50.3519V38.4479H126.719V40.0079H127.151C127.343 39.5919 127.703 39.1999 128.231 38.8319C128.759 38.4479 129.559 38.2559 130.631 38.2559C131.559 38.2559 132.367 38.4719 133.055 38.9039C133.759 39.3199 134.303 39.9039 134.687 40.6559C135.071 41.3919 135.263 42.2559 135.263 43.2479V50.3519H132.239V43.4879C132.239 42.5919 132.015 41.9199 131.567 41.4719C131.135 41.0239 130.511 40.7999 129.695 40.7999C128.767 40.7999 128.047 41.1119 127.535 41.7359C127.023 42.3439 126.767 43.1999 126.767 44.3039V50.3519H123.743ZM35.1936 81.3519V64.5519H42.4896C43.5456 64.5519 44.4656 64.7359 45.2496 65.1039C46.0336 65.4719 46.6416 65.9919 47.0736 66.6639C47.5056 67.3359 47.7216 68.1279 47.7216 69.0399V69.3279C47.7216 70.3359 47.4816 71.1519 47.0016 71.7759C46.5216 72.3999 45.9296 72.8559 45.2256 73.1439V73.5759C45.8656 73.6079 46.3616 73.8319 46.7136 74.2479C47.0656 74.6479 47.2416 75.1839 47.2416 75.8559V81.3519H44.0736V76.3119C44.0736 75.9279 43.9696 75.6159 43.7616 75.3759C43.5696 75.1359 43.2416 75.0159 42.7776 75.0159H38.3616V81.3519H35.1936ZM38.3616 72.1359H42.1536C42.9056 72.1359 43.4896 71.9359 43.9056 71.5359C44.3376 71.1199 44.5536 70.5759 44.5536 69.9039V69.6639C44.5536 68.9919 44.3456 68.4559 43.9296 68.0559C43.5136 67.6399 42.9216 67.4319 42.1536 67.4319H38.3616V72.1359ZM55.8777 81.6879C54.6937 81.6879 53.6457 81.4399 52.7337 80.9439C51.8377 80.4319 51.1337 79.7199 50.6217 78.8079C50.1257 77.8799 49.8777 76.7919 49.8777 75.5439V75.2559C49.8777 74.0079 50.1257 72.9279 50.6217 72.0159C51.1177 71.0879 51.8137 70.3759 52.7097 69.8799C53.6057 69.3679 54.6457 69.1119 55.8297 69.1119C56.9977 69.1119 58.0137 69.3759 58.8777 69.9039C59.7417 70.4159 60.4137 71.1359 60.8937 72.0639C61.3737 72.9759 61.6137 74.0399 61.6137 75.2559V76.2879H52.9497C52.9817 77.1039 53.2857 77.7679 53.8617 78.2799C54.4377 78.7919 55.1417 79.0479 55.9737 79.0479C56.8217 79.0479 57.4457 78.8639 57.8457 78.4959C58.2457 78.1279 58.5497 77.7199 58.7577 77.2719L61.2297 78.5679C61.0057 78.9839 60.6777 79.4399 60.2457 79.9359C59.8297 80.4159 59.2697 80.8319 58.5657 81.1839C57.8617 81.5199 56.9657 81.6879 55.8777 81.6879ZM52.9737 74.0319H58.5417C58.4777 73.3439 58.1977 72.7919 57.7017 72.3759C57.2217 71.9599 56.5897 71.7519 55.8057 71.7519C54.9897 71.7519 54.3417 71.9599 53.8617 72.3759C53.3817 72.7919 53.0857 73.3439 52.9737 74.0319ZM69.1052 81.6879C68.1612 81.6879 67.2732 81.4559 66.4412 80.9919C65.6252 80.5119 64.9692 79.8159 64.4732 78.9039C63.9772 77.9919 63.7292 76.8879 63.7292 75.5919V75.2079C63.7292 73.9119 63.9772 72.8079 64.4732 71.8959C64.9692 70.9839 65.6252 70.2959 66.4412 69.8319C67.2572 69.3519 68.1452 69.1119 69.1052 69.1119C69.8252 69.1119 70.4252 69.1999 70.9052 69.3759C71.4012 69.5359 71.8012 69.7439 72.1052 69.9999C72.4092 70.2559 72.6412 70.5279 72.8012 70.8159H73.2332V64.5519H76.2572V81.3519H73.2812V79.9119H72.8492C72.5772 80.3599 72.1532 80.7679 71.5772 81.1359C71.0172 81.5039 70.1932 81.6879 69.1052 81.6879ZM70.0172 79.0479C70.9452 79.0479 71.7212 78.7519 72.3452 78.1599C72.9692 77.5519 73.2812 76.6719 73.2812 75.5199V75.2799C73.2812 74.1279 72.9692 73.2559 72.3452 72.6639C71.7372 72.0559 70.9612 71.7519 70.0172 71.7519C69.0892 71.7519 68.3132 72.0559 67.6892 72.6639C67.0652 73.2559 66.7532 74.1279 66.7532 75.2799V75.5199C66.7532 76.6719 67.0652 77.5519 67.6892 78.1599C68.3132 78.7519 69.0892 79.0479 70.0172 79.0479ZM84.1459 81.5439C83.2179 81.5439 82.4019 81.3359 81.6979 80.9199C81.0099 80.4879 80.4739 79.8959 80.0899 79.1439C79.7059 78.3919 79.5139 77.5279 79.5139 76.5519V69.4479H82.5379V76.3119C82.5379 77.2079 82.7539 77.8799 83.1859 78.3279C83.6339 78.7759 84.2659 78.9999 85.0819 78.9999C86.0099 78.9999 86.7299 78.6959 87.2419 78.0879C87.7539 77.4639 88.0099 76.5999 88.0099 75.4959V69.4479H91.0339V81.3519H88.0579V79.7919H87.6259C87.4339 80.1919 87.0739 80.5839 86.5459 80.9679C86.0179 81.3519 85.2179 81.5439 84.1459 81.5439ZM99.991 81.6879C98.839 81.6879 97.791 81.4479 96.847 80.9679C95.919 80.4879 95.183 79.7919 94.639 78.8799C94.095 77.9679 93.823 76.8639 93.823 75.5679V75.2319C93.823 73.9359 94.095 72.8319 94.639 71.9199C95.183 71.0079 95.919 70.3119 96.847 69.8319C97.791 69.3519 98.839 69.1119 99.991 69.1119C101.127 69.1119 102.103 69.3119 102.919 69.7119C103.735 70.1119 104.391 70.6639 104.887 71.3679C105.399 72.0559 105.735 72.8399 105.895 73.7199L102.967 74.3439C102.903 73.8639 102.759 73.4319 102.535 73.0479C102.311 72.6639 101.991 72.3599 101.575 72.1359C101.175 71.9119 100.671 71.7999 100.063 71.7999C99.455 71.7999 98.903 71.9359 98.407 72.2079C97.927 72.4639 97.543 72.8559 97.255 73.3839C96.983 73.8959 96.847 74.5279 96.847 75.2799V75.5199C96.847 76.2719 96.983 76.9119 97.255 77.4399C97.543 77.9519 97.927 78.3439 98.407 78.6159C98.903 78.8719 99.455 78.9999 100.063 78.9999C100.975 78.9999 101.663 78.7679 102.127 78.3039C102.607 77.8239 102.911 77.1999 103.039 76.4319L105.967 77.1279C105.759 77.9759 105.399 78.7519 104.887 79.4559C104.391 80.1439 103.735 80.6879 102.919 81.0879C102.103 81.4879 101.127 81.6879 99.991 81.6879ZM112.623 81.3519C111.839 81.3519 111.199 81.1119 110.703 80.6319C110.223 80.1359 109.983 79.4799 109.983 78.6639V71.9439H107.007V69.4479H109.983V65.7519H113.007V69.4479H116.271V71.9439H113.007V78.1359C113.007 78.6159 113.231 78.8559 113.679 78.8559H115.983V81.3519H112.623ZM119.008 81.3519V69.4479H122.032V81.3519H119.008ZM120.52 68.0559C119.976 68.0559 119.512 67.8799 119.128 67.5279C118.76 67.1759 118.576 66.7119 118.576 66.1359C118.576 65.5599 118.76 65.0959 119.128 64.7439C119.512 64.3919 119.976 64.2159 120.52 64.2159C121.08 64.2159 121.544 64.3919 121.912 64.7439C122.28 65.0959 122.464 65.5599 122.464 66.1359C122.464 66.7119 122.28 67.1759 121.912 67.5279C121.544 67.8799 121.08 68.0559 120.52 68.0559ZM131.047 81.6879C129.863 81.6879 128.799 81.4479 127.855 80.9679C126.911 80.4879 126.167 79.7919 125.623 78.8799C125.079 77.9679 124.807 76.8719 124.807 75.5919V75.2079C124.807 73.9279 125.079 72.8319 125.623 71.9199C126.167 71.0079 126.911 70.3119 127.855 69.8319C128.799 69.3519 129.863 69.1119 131.047 69.1119C132.231 69.1119 133.295 69.3519 134.239 69.8319C135.183 70.3119 135.927 71.0079 136.471 71.9199C137.015 72.8319 137.287 73.9279 137.287 75.2079V75.5919C137.287 76.8719 137.015 77.9679 136.471 78.8799C135.927 79.7919 135.183 80.4879 134.239 80.9679C133.295 81.4479 132.231 81.6879 131.047 81.6879ZM131.047 78.9999C131.975 78.9999 132.743 78.7039 133.351 78.1119C133.959 77.5039 134.263 76.6399 134.263 75.5199V75.2799C134.263 74.1599 133.959 73.3039 133.351 72.7119C132.759 72.1039 131.991 71.7999 131.047 71.7999C130.119 71.7999 129.351 72.1039 128.743 72.7119C128.135 73.3039 127.831 74.1599 127.831 75.2799V75.5199C127.831 76.6399 128.135 77.5039 128.743 78.1119C129.351 78.7039 130.119 78.9999 131.047 78.9999ZM140.079 81.3519V69.4479H143.055V71.0079H143.487C143.679 70.5919 144.039 70.1999 144.567 69.8319C145.095 69.4479 145.895 69.2559 146.967 69.2559C147.895 69.2559 148.703 69.4719 149.391 69.9039C150.095 70.3199 150.639 70.9039 151.023 71.6559C151.407 72.3919 151.599 73.2559 151.599 74.2479V81.3519H148.575V74.4879C148.575 73.5919 148.351 72.9199 147.903 72.4719C147.471 72.0239 146.847 71.7999 146.031 71.7999C145.103 71.7999 144.383 72.1119 143.871 72.7359C143.359 73.3439 143.103 74.1999 143.103 75.3039V81.3519H140.079Z" fill="white"/>
<line x1="234.488" y1="340.843" x2="234.488" y2="166.342" stroke="#344BFD" stroke-width="0.5"/>
<defs>
<filter id="filter0_d_10_133" x="0" y="0" width="342.18" height="407" filterUnits="userSpaceOnUse" color-interpolation-filters="sRGB">
<feFlood flood-opacity="0" result="BackgroundImageFix"/>
<feColorMatrix in="SourceAlpha" type="matrix" values="0 0 0 0 0 0 0 0 0 0 0 0 0 0 0 0 0 0 127 0" result="hardAlpha"/>
<feOffset dy="4"/>
<feGaussianBlur stdDeviation="2"/>
<feComposite in2="hardAlpha" operator="out"/>
<feColorMatrix type="matrix" values="0 0 0 0 0 0 0 0 0 0 0 0 0 0 0 0 0 0 0.25 0"/>
<feBlend mode="normal" in2="BackgroundImageFix" result="effect1_dropShadow_10_133"/>
<feBlend mode="normal" in="SourceGraphic" in2="effect1_dropShadow_10_133" result="shape"/>
</filter>
<linearGradient id="paint0_linear_10_133" x1="134.915" y1="235.029" x2="134.915" y2="341.126" gradientUnits="userSpaceOnUse">
<stop stop-color="#BFC863"/>
<stop offset="1" stop-color="#B1B9F8" stop-opacity="0"/>
</linearGradient>
</defs>
</svg>
