<svg width="89" height="86" viewBox="0 0 89 86" fill="none" xmlns="http://www.w3.org/2000/svg">
<g id="Shape" filter="url(#filter0_dd_284_326)">
<path fill-rule="evenodd" clip-rule="evenodd" d="M48.3611 71.0828C46.5241 73.8142 43.5457 73.8142 41.7087 71.0828L38.7536 67.3036C37.806 66.0917 36.3532 65.3835 34.8148 65.3835H26.9979C20.5729 65.3835 18.243 64.6129 15.8942 63.166C13.5453 61.719 11.7019 59.5956 10.4457 56.89C9.18948 54.1844 8.52051 51.5007 8.52051 44.0999V25.7909C8.52051 18.3901 9.18948 15.7064 10.4457 13.0008C11.7019 10.2952 13.5453 8.17185 15.8942 6.72487C18.243 5.2779 20.5729 4.50732 26.9979 4.50732H62.111C68.536 4.50732 70.8659 5.2779 73.2148 6.72487C75.5636 8.17185 77.4071 10.2952 78.6633 13.0008C79.9194 15.7064 80.5884 18.3901 80.5884 25.7909V44.0999C80.5884 51.5007 79.9194 54.1844 78.6633 56.89C77.4071 59.5956 75.5636 61.719 73.2148 63.166C70.8659 64.6129 68.536 65.3835 62.111 65.3835H57.6925C54.6156 65.3835 51.7101 66.7999 49.8148 69.2238L48.3611 71.0828Z" fill="white"/>
</g>
<defs>
<filter id="filter0_dd_284_326" x="0.520508" y="0.507324" width="88.0679" height="84.624" filterUnits="userSpaceOnUse" color-interpolation-filters="sRGB">
<feFlood flood-opacity="0" result="BackgroundImageFix"/>
<feColorMatrix in="SourceAlpha" type="matrix" values="0 0 0 0 0 0 0 0 0 0 0 0 0 0 0 0 0 0 127 0" result="hardAlpha"/>
<feOffset dy="4"/>
<feGaussianBlur stdDeviation="4"/>
<feColorMatrix type="matrix" values="0 0 0 0 0.196487 0 0 0 0 0.196487 0 0 0 0 0.279476 0 0 0 0.06 0"/>
<feBlend mode="multiply" in2="BackgroundImageFix" result="effect1_dropShadow_284_326"/>
<feColorMatrix in="SourceAlpha" type="matrix" values="0 0 0 0 0 0 0 0 0 0 0 0 0 0 0 0 0 0 127 0" result="hardAlpha"/>
<feOffset dy="4"/>
<feGaussianBlur stdDeviation="2"/>
<feColorMatrix type="matrix" values="0 0 0 0 0.196487 0 0 0 0 0.196487 0 0 0 0 0.279476 0 0 0 0.08 0"/>
<feBlend mode="multiply" in2="effect1_dropShadow_284_326" result="effect2_dropShadow_284_326"/>
<feBlend mode="normal" in="SourceGraphic" in2="effect2_dropShadow_284_326" result="shape"/>
</filter>
</defs>
</svg>
