<svg width="362" height="431" viewBox="0 0 362 431" fill="none" xmlns="http://www.w3.org/2000/svg">
<g filter="url(#filter0_d_396_1043)">
<rect x="18" width="340" height="399" rx="29" fill="url(#paint0_linear_396_1043)"/>
</g>
<g filter="url(#filter1_dd_396_1043)">
<path d="M82.9104 127.272H69.1104V116.372H41.1104V105.872L57.4104 61.2725H72.6104L54.9104 104.372H69.1104V85.8725H82.9104V104.372H89.2104V116.372H82.9104V127.272ZM112.067 127.272H97.6674V110.672H112.067V127.272ZM125.353 61.2725H165.653V73.2725H136.153L134.453 87.5725C138.587 85.9725 142.52 85.1725 146.253 85.1725C160.52 85.1725 167.653 91.8058 167.653 105.072C167.653 112.539 165.687 118.306 161.753 122.372C157.887 126.439 152.32 128.472 145.053 128.472C143.52 128.472 141.853 128.372 140.053 128.172C138.253 128.039 136.453 127.839 134.653 127.572C132.853 127.306 131.12 127.006 129.453 126.672C127.853 126.339 126.453 126.006 125.253 125.672L121.653 124.772L123.153 114.572C127.22 115.239 130.92 115.739 134.253 116.072C137.587 116.339 140.62 116.472 143.353 116.472C146.62 116.472 149.12 115.606 150.853 113.872C152.587 112.139 153.453 109.639 153.453 106.372C153.453 103.172 152.72 100.839 151.253 99.3725C149.787 97.9058 147.72 97.1725 145.053 97.1725C140.453 97.1725 136.52 97.6058 133.253 98.4725L131.753 98.8725L123.553 96.9725L125.353 61.2725ZM42.2944 144.104H40.5024V147.272H38.2944V136.392H42.2944C44.8757 136.392 46.1664 137.651 46.1664 140.168C46.1664 141.448 45.841 142.424 45.1904 143.096C44.5397 143.768 43.5744 144.104 42.2944 144.104ZM40.5024 138.28V142.216H42.2784C43.377 142.216 43.9264 141.534 43.9264 140.168C43.9264 139.496 43.793 139.016 43.5264 138.728C43.2704 138.43 42.8544 138.28 42.2784 138.28H40.5024ZM53.8282 144.184H49.1242C49.1349 144.675 49.2629 145.032 49.5082 145.256C49.7536 145.47 50.1162 145.576 50.5962 145.576C51.5882 145.576 52.4736 145.544 53.2522 145.48L53.7002 145.432L53.7322 147.016C52.5269 147.315 51.4176 147.464 50.4042 147.464C49.1989 147.464 48.3242 147.144 47.7802 146.504C47.2362 145.864 46.9642 144.824 46.9642 143.384C46.9642 140.515 48.1429 139.08 50.5002 139.08C52.8256 139.08 53.9882 140.286 53.9882 142.696L53.8282 144.184ZM49.1082 142.552H51.8762C51.8762 141.912 51.7749 141.47 51.5722 141.224C51.3802 140.968 51.0282 140.84 50.5162 140.84C50.0042 140.84 49.6416 140.974 49.4282 141.24C49.2256 141.496 49.1189 141.934 49.1082 142.552ZM61.4885 141.768V145.096C61.5098 145.352 61.5525 145.534 61.6165 145.64C61.6805 145.736 61.8138 145.806 62.0165 145.848L61.9525 147.464C61.4085 147.464 60.9711 147.427 60.6405 147.352C60.3205 147.278 59.9951 147.128 59.6645 146.904C58.8858 147.278 58.1018 147.464 57.3125 147.464C55.6591 147.464 54.8325 146.59 54.8325 144.84C54.8325 143.987 55.0618 143.384 55.5205 143.032C55.9791 142.67 56.6831 142.456 57.6325 142.392L59.3445 142.264V141.768C59.3445 141.438 59.2698 141.214 59.1205 141.096C58.9711 140.968 58.7311 140.904 58.4005 140.904L55.3925 141.032L55.3285 139.544C56.4805 139.235 57.5685 139.08 58.5925 139.08C59.6271 139.08 60.3685 139.294 60.8165 139.72C61.2645 140.147 61.4885 140.83 61.4885 141.768ZM59.3445 143.752L57.8885 143.88C57.2911 143.934 56.9925 144.254 56.9925 144.84C56.9925 145.427 57.2538 145.72 57.7765 145.72C58.1818 145.72 58.6245 145.656 59.1045 145.528L59.3445 145.464V143.752ZM65.5164 144.296V147.272H63.3724V136.072H65.5164V142.44L66.3324 142.296L67.9164 139.272H70.3164L68.2364 143.064L70.4284 147.272H68.0124L66.3964 144.152L65.5164 144.296ZM83.4584 147.272H81.2504V142.76H77.2024V147.272H74.9944V136.392H77.2024V140.84H81.2504V136.392H83.4584V147.272ZM88.7345 139.08C90.0571 139.08 91.0011 139.448 91.5665 140.184C92.1318 140.91 92.4145 141.934 92.4145 143.256C92.4145 146.062 91.1878 147.464 88.7345 147.464C86.2811 147.464 85.0545 146.062 85.0545 143.256C85.0545 142.616 85.1185 142.04 85.2465 141.528C85.3745 141.016 85.5825 140.579 85.8705 140.216C86.1585 139.854 86.5371 139.576 87.0065 139.384C87.4758 139.182 88.0518 139.08 88.7345 139.08ZM88.7345 145.64C89.3105 145.64 89.7051 145.454 89.9185 145.08C90.1318 144.696 90.2385 144.088 90.2385 143.256C90.2385 142.424 90.1318 141.827 89.9185 141.464C89.7051 141.091 89.3105 140.904 88.7345 140.904C88.1585 140.904 87.7638 141.091 87.5505 141.464C87.3371 141.827 87.2305 142.424 87.2305 143.256C87.2305 143.534 87.2411 143.816 87.2625 144.104C87.2945 144.382 87.3585 144.638 87.4545 144.872C87.5611 145.096 87.7105 145.283 87.9025 145.432C88.1051 145.571 88.3825 145.64 88.7345 145.64ZM98.5461 145.256V139.272H100.69V147.272H98.5621V146.824C97.8048 147.251 97.1381 147.464 96.5621 147.464C96.0074 147.464 95.5488 147.39 95.1861 147.24C94.8234 147.091 94.5354 146.856 94.3221 146.536C94.1088 146.216 93.9594 145.806 93.8741 145.304C93.7888 144.792 93.7461 144.179 93.7461 143.464V139.272H95.8901V143.496C95.8901 143.891 95.9008 144.222 95.9221 144.488C95.9541 144.744 96.0074 144.952 96.0821 145.112C96.1674 145.272 96.2794 145.384 96.4181 145.448C96.5674 145.512 96.7648 145.544 97.0101 145.544C97.4688 145.544 97.9114 145.47 98.3381 145.32L98.5461 145.256ZM104.654 147.272H102.51V139.272H104.638V140.12C105.555 139.587 106.409 139.24 107.198 139.08V141.24C106.761 141.326 106.355 141.416 105.982 141.512C105.619 141.608 105.283 141.704 104.974 141.8L104.654 141.912V147.272ZM114.079 139.496L114.047 141.272C113.375 141.187 112.81 141.123 112.351 141.08C111.903 141.038 111.546 141.016 111.279 141.016C110.746 141.016 110.404 141.064 110.255 141.16C110.095 141.256 110.015 141.406 110.015 141.608C110.015 141.811 110.122 141.955 110.335 142.04C110.442 142.083 110.623 142.136 110.879 142.2C111.146 142.254 111.498 142.318 111.935 142.392C112.362 142.467 112.724 142.568 113.023 142.696C113.322 142.814 113.567 142.968 113.759 143.16C113.951 143.352 114.09 143.587 114.175 143.864C114.26 144.142 114.303 144.478 114.303 144.872C114.303 146.6 113.231 147.464 111.087 147.464C110.394 147.464 109.54 147.368 108.527 147.176L108.015 147.08L108.079 145.288C108.751 145.374 109.311 145.438 109.759 145.48C110.218 145.523 110.58 145.544 110.847 145.544C111.37 145.544 111.722 145.491 111.903 145.384C112.084 145.288 112.175 145.139 112.175 144.936C112.175 144.734 112.079 144.584 111.887 144.488C111.695 144.403 111.183 144.286 110.351 144.136C109.935 144.072 109.572 143.987 109.263 143.88C108.954 143.763 108.698 143.614 108.495 143.432C108.292 143.24 108.138 143.006 108.031 142.728C107.935 142.44 107.887 142.083 107.887 141.656C107.887 141.23 107.962 140.856 108.111 140.536C108.271 140.216 108.484 139.95 108.751 139.736C109.028 139.523 109.354 139.363 109.727 139.256C110.111 139.15 110.527 139.096 110.975 139.096C111.284 139.096 111.652 139.123 112.079 139.176C112.516 139.219 113.007 139.294 113.551 139.4L114.079 139.496Z" fill="#F4EBE2"/>
</g>
<path d="M50.7109 21.8985C48.9669 21.8985 48.0949 22.4745 48.0949 23.6265C48.0949 24.1385 48.3109 24.5305 48.7429 24.8025C48.9669 24.9305 49.3269 25.0985 49.8229 25.3065C50.3189 25.4985 50.9749 25.7225 51.7909 25.9785C52.5909 26.2345 53.2629 26.4985 53.8069 26.7705C54.3509 27.0425 54.7909 27.3625 55.1269 27.7305C55.4629 28.0825 55.7029 28.4985 55.8469 28.9785C56.0069 29.4585 56.0869 30.0345 56.0869 30.7065C56.0869 31.5705 55.9509 32.3305 55.6789 32.9865C55.4069 33.6265 55.0229 34.1625 54.5269 34.5945C54.0309 35.0265 53.4389 35.3545 52.7509 35.5785C52.0629 35.8025 51.2949 35.9145 50.4469 35.9145C49.1989 35.9145 47.6709 35.7225 45.8629 35.3385L44.9989 35.1705L45.3349 32.6025C47.4789 32.8905 49.1189 33.0345 50.2549 33.0345C51.9509 33.0345 52.7989 32.3305 52.7989 30.9225C52.7989 30.4105 52.6069 30.0105 52.2229 29.7225C51.8069 29.4345 51.0229 29.1225 49.8709 28.7865C48.9429 28.5145 48.1509 28.2345 47.4949 27.9465C46.8549 27.6425 46.3349 27.2985 45.9349 26.9145C45.5349 26.5145 45.2469 26.0665 45.0709 25.5705C44.8949 25.0745 44.8069 24.5065 44.8069 23.8665C44.8069 22.2185 45.2949 21.0025 46.2709 20.2185C47.2629 19.4185 48.6309 19.0185 50.3749 19.0185C50.9669 19.0185 51.6389 19.0585 52.3909 19.1385C53.1429 19.2185 53.9749 19.3385 54.8869 19.4985L55.7509 19.6665L55.4869 22.2825C54.3509 22.1545 53.3829 22.0585 52.5829 21.9945C51.7989 21.9305 51.1749 21.8985 50.7109 21.8985ZM65.5416 32.6025V23.6265H68.7576V35.6265H65.5656V34.9545C64.4296 35.5945 63.4296 35.9145 62.5656 35.9145C61.7336 35.9145 61.0456 35.8025 60.5016 35.5785C59.9576 35.3545 59.5256 35.0025 59.2056 34.5225C58.8856 34.0425 58.6616 33.4265 58.5336 32.6745C58.4056 31.9065 58.3416 30.9865 58.3416 29.9145V23.6265H61.5576V29.9625C61.5576 30.5545 61.5736 31.0505 61.6056 31.4505C61.6536 31.8345 61.7336 32.1465 61.8456 32.3865C61.9736 32.6265 62.1416 32.7945 62.3496 32.8905C62.5736 32.9865 62.8696 33.0345 63.2376 33.0345C63.9256 33.0345 64.5896 32.9225 65.2296 32.6985L65.5416 32.6025ZM74.9433 26.6505V35.6265H71.7273V23.6265H74.9193V24.2985C75.9913 23.6585 76.9913 23.3385 77.9193 23.3385C78.7193 23.3385 79.3833 23.4585 79.9113 23.6985C80.4553 23.9225 80.8873 24.2745 81.2073 24.7545C81.5433 25.2345 81.7833 25.8345 81.9273 26.5545C82.0713 27.2745 82.1433 28.1305 82.1433 29.1225V35.6265H78.9273V29.2185C78.9273 28.1945 78.8073 27.4425 78.5673 26.9625C78.3273 26.4665 77.8473 26.2185 77.1273 26.2185C76.4873 26.2185 75.8553 26.3305 75.2313 26.5545L74.9433 26.6505ZM101.114 35.6265H90.5543V19.3065H101.114V22.1865H93.8663V26.0025H99.6743V28.8345H93.8663V32.7465H101.114V35.6265ZM105.691 29.6025L102.403 23.6265H105.835L107.755 27.3465L109.699 23.6265H113.131L109.723 29.5065L113.131 35.6265H109.699L107.755 31.9545L105.835 35.6265H102.403L105.691 29.6025ZM118.139 40.6665H114.923V23.6265H118.115V24.2745C119.155 23.6505 120.067 23.3385 120.851 23.3385C121.667 23.3385 122.371 23.4585 122.963 23.6985C123.555 23.9225 124.043 24.2905 124.427 24.8025C124.811 25.2985 125.099 25.9545 125.291 26.7705C125.483 27.5865 125.579 28.5705 125.579 29.7225C125.579 30.8745 125.475 31.8505 125.267 32.6505C125.059 33.4345 124.731 34.0745 124.283 34.5705C123.851 35.0505 123.291 35.3945 122.603 35.6025C121.915 35.8105 121.091 35.9145 120.131 35.9145C119.603 35.9145 119.035 35.8665 118.427 35.7705L118.139 35.7225V40.6665ZM120.227 26.2185C119.635 26.2185 119.035 26.3385 118.427 26.5785L118.139 26.6985V32.9865C118.859 33.0825 119.443 33.1305 119.891 33.1305C120.819 33.1305 121.451 32.8585 121.787 32.3145C122.139 31.7705 122.315 30.8425 122.315 29.5305C122.315 27.3225 121.619 26.2185 120.227 26.2185ZM132.873 23.3385C134.857 23.3385 136.273 23.8905 137.121 24.9945C137.969 26.0825 138.393 27.6185 138.393 29.6025C138.393 33.8105 136.553 35.9145 132.873 35.9145C129.193 35.9145 127.353 33.8105 127.353 29.6025C127.353 28.6425 127.449 27.7785 127.641 27.0105C127.833 26.2425 128.145 25.5865 128.577 25.0425C129.009 24.4985 129.577 24.0825 130.281 23.7945C130.985 23.4905 131.849 23.3385 132.873 23.3385ZM132.873 33.1785C133.737 33.1785 134.329 32.8985 134.649 32.3385C134.969 31.7625 135.129 30.8505 135.129 29.6025C135.129 28.3545 134.969 27.4585 134.649 26.9145C134.329 26.3545 133.737 26.0745 132.873 26.0745C132.009 26.0745 131.417 26.3545 131.097 26.9145C130.777 27.4585 130.617 28.3545 130.617 29.6025C130.617 30.0185 130.633 30.4425 130.665 30.8745C130.713 31.2905 130.809 31.6745 130.953 32.0265C131.113 32.3625 131.337 32.6425 131.625 32.8665C131.929 33.0745 132.345 33.1785 132.873 33.1785ZM149.415 23.9625L149.367 26.6265C148.359 26.4985 147.511 26.4025 146.823 26.3385C146.151 26.2745 145.615 26.2425 145.215 26.2425C144.415 26.2425 143.903 26.3145 143.679 26.4585C143.439 26.6025 143.319 26.8265 143.319 27.1305C143.319 27.4345 143.479 27.6505 143.799 27.7785C143.959 27.8425 144.231 27.9225 144.615 28.0185C145.015 28.0985 145.543 28.1945 146.199 28.3065C146.839 28.4185 147.383 28.5705 147.831 28.7625C148.279 28.9385 148.647 29.1705 148.935 29.4585C149.223 29.7465 149.431 30.0985 149.559 30.5145C149.687 30.9305 149.751 31.4345 149.751 32.0265C149.751 34.6185 148.143 35.9145 144.927 35.9145C143.887 35.9145 142.607 35.7705 141.087 35.4825L140.319 35.3385L140.415 32.6505C141.423 32.7785 142.263 32.8745 142.935 32.9385C143.623 33.0025 144.167 33.0345 144.567 33.0345C145.351 33.0345 145.879 32.9545 146.151 32.7945C146.423 32.6505 146.559 32.4265 146.559 32.1225C146.559 31.8185 146.415 31.5945 146.127 31.4505C145.839 31.3225 145.071 31.1465 143.823 30.9225C143.199 30.8265 142.655 30.6985 142.191 30.5385C141.727 30.3625 141.343 30.1385 141.039 29.8665C140.735 29.5785 140.503 29.2265 140.343 28.8105C140.199 28.3785 140.127 27.8425 140.127 27.2025C140.127 26.5625 140.239 26.0025 140.463 25.5225C140.703 25.0425 141.023 24.6425 141.423 24.3225C141.839 24.0025 142.327 23.7625 142.887 23.6025C143.463 23.4425 144.087 23.3625 144.759 23.3625C145.223 23.3625 145.775 23.4025 146.415 23.4825C147.071 23.5465 147.807 23.6585 148.623 23.8185L149.415 23.9625ZM159.151 32.6025V23.6265H162.367V35.6265H159.175V34.9545C158.039 35.5945 157.039 35.9145 156.175 35.9145C155.343 35.9145 154.655 35.8025 154.111 35.5785C153.567 35.3545 153.135 35.0025 152.815 34.5225C152.495 34.0425 152.271 33.4265 152.143 32.6745C152.015 31.9065 151.951 30.9865 151.951 29.9145V23.6265H155.167V29.9625C155.167 30.5545 155.183 31.0505 155.215 31.4505C155.263 31.8345 155.343 32.1465 155.455 32.3865C155.583 32.6265 155.751 32.7945 155.959 32.8905C156.183 32.9865 156.479 33.0345 156.847 33.0345C157.535 33.0345 158.199 32.9225 158.839 32.6985L159.151 32.6025ZM168.553 35.6265H165.337V23.6265H168.529V24.8985C169.905 24.0985 171.185 23.5785 172.369 23.3385V26.5785C171.713 26.7065 171.105 26.8425 170.545 26.9865C170.001 27.1305 169.497 27.2745 169.033 27.4185L168.553 27.5865V35.6265ZM183.962 30.9945H176.906C176.922 31.7305 177.114 32.2665 177.482 32.6025C177.85 32.9225 178.394 33.0825 179.114 33.0825C180.602 33.0825 181.93 33.0345 183.098 32.9385L183.77 32.8665L183.818 35.2425C182.01 35.6905 180.346 35.9145 178.826 35.9145C177.018 35.9145 175.706 35.4345 174.89 34.4745C174.074 33.5145 173.666 31.9545 173.666 29.7945C173.666 25.4905 175.434 23.3385 178.97 23.3385C182.458 23.3385 184.202 25.1465 184.202 28.7625L183.962 30.9945ZM176.882 28.5465H181.034C181.034 27.5865 180.882 26.9225 180.578 26.5545C180.29 26.1705 179.762 25.9785 178.994 25.9785C178.226 25.9785 177.682 26.1785 177.362 26.5785C177.058 26.9625 176.898 27.6185 176.882 28.5465Z" fill="#F4EBE2"/>
<g filter="url(#filter2_dd_396_1043)">
<path d="M254.618 372.284V365.284H255.948L257.888 369.714L259.798 365.284H261.158V372.284H260.208V366.494L258.338 370.704H257.398L255.518 366.494V372.284H254.618ZM264.848 372.404C264.414 372.404 264.021 372.294 263.668 372.074C263.314 371.854 263.031 371.544 262.818 371.144C262.611 370.737 262.508 370.261 262.508 369.714C262.508 369.194 262.611 368.727 262.818 368.314C263.031 367.901 263.321 367.574 263.688 367.334C264.061 367.087 264.488 366.964 264.968 366.964C265.268 366.964 265.538 367.017 265.778 367.124C266.024 367.224 266.238 367.351 266.418 367.504V367.084H267.238V371.024C267.238 371.277 267.298 371.444 267.418 371.524C267.544 371.597 267.681 371.634 267.828 371.634L267.638 372.334C266.998 372.334 266.611 372.074 266.478 371.554C266.324 371.767 266.114 371.964 265.848 372.144C265.588 372.317 265.254 372.404 264.848 372.404ZM265.048 371.604C265.301 371.604 265.541 371.544 265.768 371.424C265.994 371.297 266.184 371.141 266.338 370.954V368.164C266.158 368.037 265.958 367.937 265.738 367.864C265.524 367.784 265.298 367.744 265.058 367.744C264.738 367.744 264.454 367.827 264.208 367.994C263.968 368.154 263.778 368.381 263.638 368.674C263.498 368.961 263.428 369.297 263.428 369.684C263.428 370.057 263.498 370.391 263.638 370.684C263.778 370.971 263.971 371.197 264.218 371.364C264.464 371.524 264.741 371.604 265.048 371.604ZM268.964 374.604C268.764 374.604 268.588 374.584 268.434 374.544C268.288 374.504 268.171 374.457 268.084 374.404L268.284 373.654C268.364 373.701 268.464 373.741 268.584 373.774C268.704 373.807 268.838 373.824 268.984 373.824C269.264 373.824 269.514 373.734 269.734 373.554C269.954 373.374 270.164 373.021 270.364 372.494L270.594 371.894H270.114L268.084 367.324L268.884 366.964L270.824 371.294L272.334 367.004L273.164 367.324L271.254 372.544C271.061 373.077 270.851 373.494 270.624 373.794C270.398 374.094 270.148 374.304 269.874 374.424C269.601 374.544 269.298 374.604 268.964 374.604Z" fill="#F4EBE2"/>
<path d="M211.677 372.384L210.897 370.384H207.657L206.877 372.364L206.067 372.034L208.807 365.284H209.847L212.547 372.034L211.677 372.384ZM207.957 369.584H210.587L209.277 366.224L207.957 369.584ZM213.636 374.484V368.414C213.636 368.187 213.58 368.027 213.466 367.934C213.36 367.834 213.22 367.784 213.046 367.784L213.236 367.084C213.85 367.084 214.233 367.327 214.386 367.814C214.453 367.714 214.56 367.597 214.706 367.464C214.86 367.331 215.046 367.214 215.266 367.114C215.493 367.014 215.75 366.964 216.036 366.964C216.436 366.964 216.81 367.071 217.156 367.284C217.51 367.491 217.793 367.794 218.006 368.194C218.22 368.587 218.326 369.067 218.326 369.634C218.326 370.187 218.22 370.674 218.006 371.094C217.793 371.507 217.513 371.831 217.166 372.064C216.826 372.291 216.456 372.404 216.056 372.404C215.75 372.404 215.463 372.344 215.196 372.224C214.93 372.097 214.71 371.954 214.536 371.794V374.484H213.636ZM215.876 371.604C216.33 371.604 216.696 371.427 216.976 371.074C217.263 370.714 217.406 370.244 217.406 369.664C217.406 369.264 217.333 368.921 217.186 368.634C217.046 368.347 216.856 368.127 216.616 367.974C216.383 367.821 216.123 367.744 215.836 367.744C215.55 367.744 215.29 367.817 215.056 367.964C214.83 368.104 214.656 368.257 214.536 368.424V370.984C214.71 371.164 214.91 371.314 215.136 371.434C215.363 371.547 215.61 371.604 215.876 371.604ZM219.579 372.284V367.084H220.449V368.214C220.536 367.994 220.653 367.791 220.799 367.604C220.946 367.411 221.129 367.257 221.349 367.144C221.569 367.024 221.826 366.964 222.119 366.964C222.219 366.964 222.319 366.971 222.419 366.984C222.519 366.991 222.603 367.004 222.669 367.024L222.399 367.954C222.273 367.901 222.123 367.874 221.949 367.874C221.703 367.874 221.466 367.944 221.239 368.084C221.019 368.224 220.836 368.441 220.689 368.734C220.549 369.027 220.479 369.401 220.479 369.854V372.284H219.579Z" fill="#F4EBE2"/>
<path d="M157.894 372.284V365.284H159.224L161.164 369.714L163.074 365.284H164.434V372.284H163.484V366.494L161.614 370.704H160.674L158.794 366.494V372.284H157.894ZM168.124 372.404C167.691 372.404 167.297 372.294 166.944 372.074C166.591 371.854 166.307 371.544 166.094 371.144C165.887 370.737 165.784 370.261 165.784 369.714C165.784 369.194 165.887 368.727 166.094 368.314C166.307 367.901 166.597 367.574 166.964 367.334C167.337 367.087 167.764 366.964 168.244 366.964C168.544 366.964 168.814 367.017 169.054 367.124C169.301 367.224 169.514 367.351 169.694 367.504V367.084H170.514V371.024C170.514 371.277 170.574 371.444 170.694 371.524C170.821 371.597 170.957 371.634 171.104 371.634L170.914 372.334C170.274 372.334 169.887 372.074 169.754 371.554C169.601 371.767 169.391 371.964 169.124 372.144C168.864 372.317 168.531 372.404 168.124 372.404ZM168.324 371.604C168.577 371.604 168.817 371.544 169.044 371.424C169.271 371.297 169.461 371.141 169.614 370.954V368.164C169.434 368.037 169.234 367.937 169.014 367.864C168.801 367.784 168.574 367.744 168.334 367.744C168.014 367.744 167.731 367.827 167.484 367.994C167.244 368.154 167.054 368.381 166.914 368.674C166.774 368.961 166.704 369.297 166.704 369.684C166.704 370.057 166.774 370.391 166.914 370.684C167.054 370.971 167.247 371.197 167.494 371.364C167.741 371.524 168.017 371.604 168.324 371.604ZM172.306 372.284V367.084H173.176V368.214C173.263 367.994 173.379 367.791 173.526 367.604C173.673 367.411 173.856 367.257 174.076 367.144C174.296 367.024 174.553 366.964 174.846 366.964C174.946 366.964 175.046 366.971 175.146 366.984C175.246 366.991 175.329 367.004 175.396 367.024L175.126 367.954C174.999 367.901 174.849 367.874 174.676 367.874C174.429 367.874 174.193 367.944 173.966 368.084C173.746 368.224 173.563 368.441 173.416 368.734C173.276 369.027 173.206 369.401 173.206 369.854V372.284H172.306Z" fill="#F4EBE2"/>
<path d="M110.408 372.284V365.284H114.558V366.104H111.358V368.244H114.028V369.024H111.358V372.284H110.408ZM117.241 372.404C116.495 372.404 115.901 372.167 115.461 371.694C115.028 371.214 114.811 370.544 114.811 369.684C114.811 369.164 114.908 368.701 115.101 368.294C115.301 367.881 115.578 367.557 115.931 367.324C116.285 367.084 116.695 366.964 117.161 366.964C117.661 366.964 118.075 367.074 118.401 367.294C118.735 367.507 118.985 367.797 119.151 368.164C119.318 368.531 119.401 368.934 119.401 369.374C119.401 369.607 119.391 369.834 119.371 370.054H115.731C115.791 370.541 115.961 370.921 116.241 371.194C116.521 371.467 116.891 371.604 117.351 371.604C117.651 371.604 117.921 371.574 118.161 371.514C118.401 371.447 118.631 371.364 118.851 371.264L119.061 372.034C118.821 372.141 118.551 372.227 118.251 372.294C117.951 372.367 117.615 372.404 117.241 372.404ZM115.721 369.324H118.571C118.571 368.817 118.445 368.427 118.191 368.154C117.938 367.881 117.588 367.744 117.141 367.744C116.755 367.744 116.435 367.881 116.181 368.154C115.928 368.421 115.775 368.811 115.721 369.324ZM122.941 372.404C122.641 372.404 122.357 372.351 122.091 372.244C121.831 372.131 121.614 372.001 121.441 371.854V372.284H120.601V364.884H121.501V367.624C121.634 367.471 121.827 367.324 122.081 367.184C122.341 367.037 122.647 366.964 123.001 366.964C123.401 366.964 123.774 367.071 124.121 367.284C124.474 367.491 124.757 367.794 124.971 368.194C125.184 368.587 125.291 369.067 125.291 369.634C125.291 370.047 125.224 370.424 125.091 370.764C124.957 371.104 124.777 371.397 124.551 371.644C124.331 371.884 124.081 372.071 123.801 372.204C123.521 372.337 123.234 372.404 122.941 372.404ZM122.701 371.604C123.027 371.604 123.314 371.524 123.561 371.364C123.814 371.204 124.011 370.977 124.151 370.684C124.297 370.391 124.371 370.051 124.371 369.664C124.371 369.264 124.297 368.921 124.151 368.634C124.011 368.347 123.821 368.127 123.581 367.974C123.347 367.821 123.087 367.744 122.801 367.744C122.514 367.744 122.254 367.817 122.021 367.964C121.794 368.104 121.621 368.257 121.501 368.424V371.204C121.654 371.324 121.834 371.421 122.041 371.494C122.247 371.567 122.467 371.604 122.701 371.604Z" fill="#F4EBE2"/>
<path d="M306.031 372.404C305.725 372.404 305.435 372.351 305.161 372.244C304.895 372.137 304.671 371.997 304.491 371.824L304.951 371.094C305.085 371.234 305.245 371.351 305.431 371.444C305.618 371.537 305.808 371.584 306.001 371.584C306.321 371.584 306.575 371.471 306.761 371.244C306.948 371.011 307.041 370.621 307.041 370.074V365.284H307.991V369.974C307.991 370.821 307.811 371.437 307.451 371.824C307.091 372.211 306.618 372.404 306.031 372.404ZM311.288 372.404C310.988 372.404 310.705 372.341 310.438 372.214C310.171 372.087 309.955 371.884 309.788 371.604C309.621 371.317 309.538 370.937 309.538 370.464V367.084H310.438V370.344C310.438 370.751 310.525 371.064 310.698 371.284C310.871 371.497 311.125 371.604 311.458 371.604C311.731 371.604 311.995 371.551 312.248 371.444C312.508 371.331 312.738 371.181 312.938 370.994V367.084H313.838V370.934C313.838 371.221 313.898 371.411 314.018 371.504C314.145 371.591 314.281 371.634 314.428 371.634L314.238 372.334C313.618 372.334 313.235 372.087 313.088 371.594C312.855 371.834 312.585 372.031 312.278 372.184C311.971 372.331 311.641 372.404 311.288 372.404ZM315.623 372.284V367.084H316.493V367.954C316.68 367.674 316.917 367.441 317.203 367.254C317.497 367.061 317.843 366.964 318.243 366.964C318.83 366.964 319.267 367.141 319.553 367.494C319.847 367.847 319.993 368.314 319.993 368.894V372.284H319.093V368.994C319.093 368.621 319.003 368.321 318.823 368.094C318.65 367.867 318.407 367.754 318.093 367.754C317.787 367.754 317.497 367.864 317.223 368.084C316.95 368.297 316.717 368.551 316.523 368.844V372.284H315.623Z" fill="#F4EBE2"/>
<path d="M62.8466 372.404C62.54 372.404 62.25 372.351 61.9766 372.244C61.71 372.137 61.4866 371.997 61.3066 371.824L61.7666 371.094C61.9 371.234 62.06 371.351 62.2466 371.444C62.4333 371.537 62.6233 371.584 62.8166 371.584C63.1366 371.584 63.39 371.471 63.5766 371.244C63.7633 371.011 63.8566 370.621 63.8566 370.074V365.284H64.8066V369.974C64.8066 370.821 64.6266 371.437 64.2666 371.824C63.9066 372.211 63.4333 372.404 62.8466 372.404ZM68.3935 372.404C67.9602 372.404 67.5668 372.294 67.2135 372.074C66.8602 371.854 66.5768 371.544 66.3635 371.144C66.1568 370.737 66.0535 370.261 66.0535 369.714C66.0535 369.194 66.1568 368.727 66.3635 368.314C66.5768 367.901 66.8668 367.574 67.2335 367.334C67.6068 367.087 68.0335 366.964 68.5135 366.964C68.8135 366.964 69.0835 367.017 69.3235 367.124C69.5702 367.224 69.7835 367.351 69.9635 367.504V367.084H70.7835V371.024C70.7835 371.277 70.8435 371.444 70.9635 371.524C71.0902 371.597 71.2268 371.634 71.3735 371.634L71.1835 372.334C70.5435 372.334 70.1568 372.074 70.0235 371.554C69.8702 371.767 69.6602 371.964 69.3935 372.144C69.1335 372.317 68.8002 372.404 68.3935 372.404ZM68.5935 371.604C68.8468 371.604 69.0868 371.544 69.3135 371.424C69.5402 371.297 69.7302 371.141 69.8835 370.954V368.164C69.7035 368.037 69.5035 367.937 69.2835 367.864C69.0702 367.784 68.8435 367.744 68.6035 367.744C68.2835 367.744 68.0002 367.827 67.7535 367.994C67.5135 368.154 67.3235 368.381 67.1835 368.674C67.0435 368.961 66.9735 369.297 66.9735 369.684C66.9735 370.057 67.0435 370.391 67.1835 370.684C67.3235 370.971 67.5168 371.197 67.7635 371.364C68.0102 371.524 68.2868 371.604 68.5935 371.604ZM72.5754 372.284V367.084H73.4454V367.954C73.6321 367.674 73.8687 367.441 74.1554 367.254C74.4487 367.061 74.7954 366.964 75.1954 366.964C75.7821 366.964 76.2187 367.141 76.5054 367.494C76.7987 367.847 76.9454 368.314 76.9454 368.894V372.284H76.0454V368.994C76.0454 368.621 75.9554 368.321 75.7754 368.094C75.6021 367.867 75.3587 367.754 75.0454 367.754C74.7387 367.754 74.4487 367.864 74.1754 368.084C73.9021 368.297 73.6687 368.551 73.4754 368.844V372.284H72.5754Z" fill="#F4EBE2"/>
<path d="M66.75 295.009C67.9418 293.681 72.9997 296.649 79.1876 294.965C84.06 293.64 88.2984 289.383 94.5362 288.096C106.376 285.655 116.038 283.146 121.528 277.314C127.019 271.483 135.26 251.71 145.081 251.71C154.901 251.71 159.9 261.995 163.605 268.77C167.153 275.259 173.988 290.844 185.04 292.563C197.238 294.459 207.269 306.026 221.823 307.97C229.581 309.006 235.795 306.989 242.729 303.856C249.663 300.722 248.306 299.369 263.9 296.953C276.768 294.959 280.134 288.096 292.744 287.271C305.354 286.445 311.187 312.287 324.5 310.13" stroke="url(#paint1_linear_396_1043)" stroke-width="2" stroke-linecap="round" stroke-linejoin="round"/>
<g filter="url(#filter3_dd_396_1043)">
<rect x="141" y="244" width="12" height="15" rx="6" fill="#007AFF" fill-opacity="0.15"/>
<rect x="142" y="245" width="10" height="13" rx="5" stroke="white" stroke-width="2"/>
</g>
<g opacity="0.5">
<path d="M260.618 178.656V175.198L257.459 170.063L258.499 169.439L261.281 174.054L264.011 169.491L264.986 170.063L261.853 175.198V178.656H260.618ZM268.004 178.812C267.034 178.812 266.262 178.505 265.69 177.889C265.127 177.265 264.845 176.394 264.845 175.276C264.845 174.6 264.971 173.998 265.222 173.469C265.482 172.932 265.842 172.512 266.301 172.208C266.761 171.896 267.294 171.74 267.9 171.74C268.55 171.74 269.088 171.883 269.512 172.169C269.946 172.447 270.271 172.824 270.487 173.3C270.704 173.777 270.812 174.301 270.812 174.873C270.812 175.177 270.799 175.471 270.773 175.757H266.041C266.119 176.39 266.34 176.884 266.704 177.239C267.068 177.595 267.549 177.772 268.147 177.772C268.537 177.772 268.888 177.733 269.2 177.655C269.512 177.569 269.811 177.46 270.097 177.33L270.37 178.331C270.058 178.47 269.707 178.583 269.317 178.669C268.927 178.765 268.49 178.812 268.004 178.812ZM266.028 174.808H269.733C269.733 174.15 269.569 173.643 269.239 173.287C268.91 172.932 268.455 172.754 267.874 172.754C267.372 172.754 266.956 172.932 266.626 173.287C266.297 173.634 266.098 174.141 266.028 174.808ZM274.959 178.812C274.395 178.812 273.884 178.669 273.425 178.383C272.965 178.097 272.597 177.694 272.32 177.174C272.051 176.646 271.917 176.026 271.917 175.315C271.917 174.639 272.051 174.033 272.32 173.495C272.597 172.958 272.974 172.533 273.451 172.221C273.936 171.901 274.491 171.74 275.115 171.74C275.505 171.74 275.856 171.81 276.168 171.948C276.488 172.078 276.766 172.243 277 172.442V171.896H278.066V177.018C278.066 177.348 278.144 177.564 278.3 177.668C278.464 177.764 278.642 177.811 278.833 177.811L278.586 178.721C277.754 178.721 277.251 178.383 277.078 177.707C276.878 177.985 276.605 178.24 276.259 178.474C275.921 178.7 275.487 178.812 274.959 178.812ZM275.219 177.772C275.548 177.772 275.86 177.694 276.155 177.538C276.449 177.374 276.696 177.17 276.896 176.927V173.3C276.662 173.136 276.402 173.006 276.116 172.91C275.838 172.806 275.544 172.754 275.232 172.754C274.816 172.754 274.447 172.863 274.127 173.079C273.815 173.287 273.568 173.582 273.386 173.963C273.204 174.336 273.113 174.774 273.113 175.276C273.113 175.762 273.204 176.195 273.386 176.576C273.568 176.949 273.819 177.244 274.14 177.46C274.46 177.668 274.82 177.772 275.219 177.772ZM280.395 178.656V171.896H281.526V173.365C281.639 173.079 281.79 172.815 281.981 172.572C282.172 172.321 282.41 172.122 282.696 171.974C282.982 171.818 283.316 171.74 283.697 171.74C283.827 171.74 283.957 171.749 284.087 171.766C284.217 171.775 284.325 171.792 284.412 171.818L284.061 173.027C283.896 172.958 283.701 172.923 283.476 172.923C283.155 172.923 282.848 173.014 282.553 173.196C282.267 173.378 282.029 173.66 281.838 174.041C281.656 174.423 281.565 174.908 281.565 175.497V178.656H280.395ZM287.641 178.812C287.243 178.812 286.883 178.739 286.562 178.591C286.242 178.435 285.986 178.188 285.795 177.85C285.613 177.512 285.522 177.075 285.522 176.537V169.036H286.692V176.42C286.692 176.888 286.788 177.235 286.978 177.46C287.178 177.686 287.451 177.798 287.797 177.798C287.962 177.798 288.122 177.781 288.278 177.746C288.443 177.703 288.582 177.655 288.694 177.603L288.98 178.552C288.824 178.622 288.629 178.682 288.395 178.734C288.17 178.786 287.919 178.812 287.641 178.812ZM289.73 181.672C289.47 181.672 289.24 181.646 289.041 181.594C288.85 181.542 288.699 181.482 288.586 181.412L288.846 180.437C288.95 180.498 289.08 180.55 289.236 180.593C289.392 180.637 289.565 180.658 289.756 180.658C290.12 180.658 290.445 180.541 290.731 180.307C291.017 180.073 291.29 179.614 291.55 178.929L291.849 178.149H291.225L288.586 172.208L289.626 171.74L292.148 177.369L294.111 171.792L295.19 172.208L292.707 178.994C292.456 179.688 292.183 180.229 291.888 180.619C291.593 181.009 291.268 181.282 290.913 181.438C290.558 181.594 290.163 181.672 289.73 181.672Z" fill="#F4EBE2"/>
</g>
<g opacity="0.5">
<path d="M154.862 178.656V169.556H156.591L159.113 175.315L161.596 169.556H163.364V178.656H162.129V171.129L159.698 176.602H158.476L156.032 171.129V178.656H154.862ZM168.421 178.812C167.78 178.812 167.204 178.665 166.692 178.37C166.181 178.067 165.778 177.651 165.483 177.122C165.197 176.585 165.054 175.97 165.054 175.276C165.054 174.548 165.202 173.92 165.496 173.391C165.791 172.863 166.194 172.455 166.705 172.169C167.217 171.883 167.789 171.74 168.421 171.74C169.054 171.74 169.622 171.883 170.124 172.169C170.636 172.455 171.039 172.863 171.333 173.391C171.637 173.911 171.788 174.531 171.788 175.25C171.788 175.97 171.641 176.598 171.346 177.135C171.052 177.664 170.649 178.076 170.137 178.37C169.635 178.665 169.063 178.812 168.421 178.812ZM168.421 177.772C169.106 177.772 169.639 177.543 170.02 177.083C170.402 176.615 170.592 176.013 170.592 175.276C170.592 174.826 170.497 174.414 170.306 174.041C170.116 173.66 169.856 173.357 169.526 173.131C169.206 172.897 168.837 172.78 168.421 172.78C167.737 172.78 167.204 173.006 166.822 173.456C166.441 173.907 166.25 174.505 166.25 175.25C166.25 175.701 166.346 176.121 166.536 176.511C166.727 176.893 166.983 177.2 167.303 177.434C167.633 177.66 168.005 177.772 168.421 177.772ZM173.344 178.656V171.896H174.475V173.027C174.717 172.663 175.025 172.36 175.398 172.117C175.779 171.866 176.23 171.74 176.75 171.74C177.512 171.74 178.08 171.97 178.453 172.429C178.834 172.889 179.025 173.495 179.025 174.249V178.656H177.855V174.379C177.855 173.894 177.738 173.504 177.504 173.209C177.278 172.915 176.962 172.767 176.555 172.767C176.156 172.767 175.779 172.91 175.424 173.196C175.068 173.474 174.765 173.803 174.514 174.184V178.656H173.344ZM183.403 178.812C182.753 178.812 182.237 178.6 181.856 178.175C181.483 177.742 181.297 177.127 181.297 176.329V173.157H180.127V172.143H181.323L181.57 170.011H182.467V172.143H184.339V173.157H182.467V176.42C182.467 176.923 182.571 177.274 182.779 177.473C182.996 177.673 183.251 177.772 183.546 177.772C183.763 177.772 183.966 177.738 184.157 177.668C184.356 177.599 184.538 177.517 184.703 177.421L185.028 178.357C184.855 178.461 184.621 178.561 184.326 178.656C184.031 178.76 183.724 178.812 183.403 178.812ZM186.204 178.656V169.036H187.374V172.975C187.617 172.62 187.924 172.325 188.297 172.091C188.67 171.857 189.107 171.74 189.61 171.74C190.373 171.74 190.94 171.97 191.313 172.429C191.694 172.889 191.885 173.495 191.885 174.249V178.656H190.715V174.379C190.715 173.894 190.602 173.504 190.377 173.209C190.152 172.915 189.835 172.767 189.428 172.767C189.029 172.767 188.648 172.91 188.284 173.196C187.929 173.474 187.625 173.803 187.374 174.184V178.656H186.204ZM195.951 178.812C195.553 178.812 195.193 178.739 194.872 178.591C194.552 178.435 194.296 178.188 194.105 177.85C193.923 177.512 193.832 177.075 193.832 176.537V169.036H195.002V176.42C195.002 176.888 195.098 177.235 195.288 177.46C195.488 177.686 195.761 177.798 196.107 177.798C196.272 177.798 196.432 177.781 196.588 177.746C196.753 177.703 196.892 177.655 197.004 177.603L197.29 178.552C197.134 178.622 196.939 178.682 196.705 178.734C196.48 178.786 196.229 178.812 195.951 178.812ZM198.04 181.672C197.78 181.672 197.55 181.646 197.351 181.594C197.16 181.542 197.009 181.482 196.896 181.412L197.156 180.437C197.26 180.498 197.39 180.55 197.546 180.593C197.702 180.637 197.875 180.658 198.066 180.658C198.43 180.658 198.755 180.541 199.041 180.307C199.327 180.073 199.6 179.614 199.86 178.929L200.159 178.149H199.535L196.896 172.208L197.936 171.74L200.458 177.369L202.421 171.792L203.5 172.208L201.017 178.994C200.766 179.688 200.493 180.229 200.198 180.619C199.903 181.009 199.578 181.282 199.223 181.438C198.868 181.594 198.473 181.672 198.04 181.672Z" fill="#F4EBE2"/>
</g>
<path d="M61.1305 175.656L58.8035 167.011H61.1175L62.4695 173.147L63.9255 168.519H65.7585L67.2665 173.212C67.6045 172.45 67.9035 171.561 68.1635 170.547C68.4235 169.525 68.6488 168.346 68.8395 167.011H70.9325C70.6811 168.745 70.3345 170.326 69.8925 171.756C69.4505 173.186 68.9348 174.486 68.3455 175.656H66.2785L64.8485 171.002L63.2885 175.656H61.1305ZM73.5798 173.069C73.5885 173.312 73.6231 173.511 73.6838 173.667C73.7445 173.823 73.8311 173.949 73.9438 174.044C74.0651 174.14 74.2168 174.209 74.3988 174.252C74.5895 174.287 74.8235 174.304 75.1008 174.304C75.2308 174.304 75.3781 174.3 75.5428 174.291C75.7075 174.274 75.8721 174.252 76.0368 174.226C76.2015 174.2 76.3575 174.174 76.5048 174.148C76.6521 174.114 76.7778 174.079 76.8818 174.044L77.0768 175.487C76.7821 175.583 76.4268 175.661 76.0108 175.721C75.6035 175.782 75.1831 175.812 74.7498 175.812C74.2558 175.812 73.7965 175.76 73.3718 175.656C72.9558 175.561 72.5918 175.388 72.2798 175.136C71.9765 174.885 71.7381 174.547 71.5648 174.122C71.3915 173.689 71.3048 173.143 71.3048 172.484C71.3048 171.834 71.3785 171.297 71.5258 170.872C71.6818 170.448 71.8941 170.11 72.1628 169.858C72.4401 169.598 72.7738 169.421 73.1638 169.325C73.5538 169.221 73.9915 169.169 74.4768 169.169C74.9708 169.169 75.3868 169.234 75.7248 169.364C76.0715 169.486 76.3488 169.668 76.5568 169.91C76.7735 170.153 76.9295 170.448 77.0248 170.794C77.1288 171.132 77.1808 171.518 77.1808 171.951V173.069H73.5798ZM75.1658 171.925C75.1658 171.431 75.1138 171.072 75.0098 170.846C74.9145 170.612 74.7065 170.495 74.3858 170.495C74.0738 170.495 73.8615 170.617 73.7488 170.859C73.6361 171.102 73.5798 171.457 73.5798 171.925H75.1658ZM80.3972 173.069C80.4058 173.312 80.4405 173.511 80.5012 173.667C80.5618 173.823 80.6485 173.949 80.7612 174.044C80.8825 174.14 81.0342 174.209 81.2162 174.252C81.4068 174.287 81.6408 174.304 81.9182 174.304C82.0482 174.304 82.1955 174.3 82.3602 174.291C82.5248 174.274 82.6895 174.252 82.8542 174.226C83.0188 174.2 83.1748 174.174 83.3222 174.148C83.4695 174.114 83.5952 174.079 83.6992 174.044L83.8942 175.487C83.5995 175.583 83.2442 175.661 82.8282 175.721C82.4208 175.782 82.0005 175.812 81.5672 175.812C81.0732 175.812 80.6138 175.76 80.1892 175.656C79.7732 175.561 79.4092 175.388 79.0972 175.136C78.7938 174.885 78.5555 174.547 78.3822 174.122C78.2088 173.689 78.1222 173.143 78.1222 172.484C78.1222 171.834 78.1958 171.297 78.3432 170.872C78.4992 170.448 78.7115 170.11 78.9802 169.858C79.2575 169.598 79.5912 169.421 79.9812 169.325C80.3712 169.221 80.8088 169.169 81.2942 169.169C81.7882 169.169 82.2042 169.234 82.5422 169.364C82.8888 169.486 83.1662 169.668 83.3742 169.91C83.5908 170.153 83.7468 170.448 83.8422 170.794C83.9462 171.132 83.9982 171.518 83.9982 171.951V173.069H80.3972ZM81.9832 171.925C81.9832 171.431 81.9312 171.072 81.8272 170.846C81.7318 170.612 81.5238 170.495 81.2032 170.495C80.8912 170.495 80.6788 170.617 80.5662 170.859C80.4535 171.102 80.3972 171.457 80.3972 171.925H81.9832ZM87.5396 166.166V171.808L89.3726 169.325H91.5696L89.4896 171.873C89.9489 171.951 90.3389 172.151 90.6596 172.471C90.9889 172.783 91.2142 173.247 91.3356 173.862L91.7126 175.656H89.3986L89.0996 174.031C89.0649 173.849 89.0086 173.706 88.9306 173.602C88.8612 173.498 88.7789 173.416 88.6836 173.355C88.5882 173.295 88.4842 173.256 88.3716 173.238C88.2676 173.212 88.1636 173.199 88.0596 173.199L87.5396 173.771V175.656H85.3556V166.166H87.5396ZM94.7886 166.166V175.656H92.6046V166.166H94.7886ZM98.543 169.325V173.316C98.543 173.62 98.6167 173.836 98.764 173.966C98.92 174.088 99.1454 174.148 99.44 174.148C99.57 174.148 99.7044 174.14 99.843 174.122C99.9904 174.105 100.112 174.079 100.207 174.044V169.325H102.391V175.331C102.391 175.929 102.304 176.419 102.131 176.8C101.966 177.182 101.732 177.476 101.429 177.684C101.126 177.901 100.766 178.048 100.35 178.126C99.9427 178.213 99.4964 178.256 99.011 178.256C98.7944 178.256 98.5734 178.248 98.348 178.23C98.1314 178.213 97.919 178.187 97.711 178.152C97.5117 178.126 97.3297 178.092 97.165 178.048C97.0004 178.014 96.866 177.979 96.762 177.944L96.944 176.475C97.048 176.51 97.178 176.545 97.334 176.579C97.49 176.614 97.6547 176.644 97.828 176.67C98.01 176.696 98.192 176.718 98.374 176.735C98.5647 176.753 98.7467 176.761 98.92 176.761C99.128 176.761 99.31 176.748 99.466 176.722C99.6307 176.696 99.765 176.644 99.869 176.566C99.9817 176.488 100.064 176.38 100.116 176.241C100.177 176.111 100.207 175.938 100.207 175.721V175.578C100.086 175.604 99.9297 175.626 99.739 175.643C99.557 175.652 99.401 175.656 99.271 175.656C98.8637 175.656 98.4824 175.622 98.127 175.552C97.7804 175.474 97.477 175.344 97.217 175.162C96.957 174.98 96.749 174.733 96.593 174.421C96.4457 174.109 96.372 173.715 96.372 173.238V169.325H98.543Z" fill="#F4EBE2"/>
</g>
<defs>
<filter id="filter0_d_396_1043" x="14" y="0" width="348" height="407" filterUnits="userSpaceOnUse" color-interpolation-filters="sRGB">
<feFlood flood-opacity="0" result="BackgroundImageFix"/>
<feColorMatrix in="SourceAlpha" type="matrix" values="0 0 0 0 0 0 0 0 0 0 0 0 0 0 0 0 0 0 127 0" result="hardAlpha"/>
<feOffset dy="4"/>
<feGaussianBlur stdDeviation="2"/>
<feComposite in2="hardAlpha" operator="out"/>
<feColorMatrix type="matrix" values="0 0 0 0 0 0 0 0 0 0 0 0 0 0 0 0 0 0 0.25 0"/>
<feBlend mode="normal" in2="BackgroundImageFix" result="effect1_dropShadow_396_1043"/>
<feBlend mode="normal" in="SourceGraphic" in2="effect1_dropShadow_396_1043" result="shape"/>
</filter>
<filter id="filter1_dd_396_1043" x="-3.72266" y="47.8794" width="391.716" height="407.12" filterUnits="userSpaceOnUse" color-interpolation-filters="sRGB">
<feFlood flood-opacity="0" result="BackgroundImageFix"/>
<feColorMatrix in="SourceAlpha" type="matrix" values="0 0 0 0 0 0 0 0 0 0 0 0 0 0 0 0 0 0 127 0" result="hardAlpha"/>
<feOffset dy="24"/>
<feGaussianBlur stdDeviation="16"/>
<feColorMatrix type="matrix" values="0 0 0 0 0.196487 0 0 0 0 0.196487 0 0 0 0 0.279476 0 0 0 0.08 0"/>
<feBlend mode="multiply" in2="BackgroundImageFix" result="effect1_dropShadow_396_1043"/>
<feColorMatrix in="SourceAlpha" type="matrix" values="0 0 0 0 0 0 0 0 0 0 0 0 0 0 0 0 0 0 127 0" result="hardAlpha"/>
<feOffset dy="16"/>
<feGaussianBlur stdDeviation="8"/>
<feColorMatrix type="matrix" values="0 0 0 0 0.196487 0 0 0 0 0.196487 0 0 0 0 0.279476 0 0 0 0.08 0"/>
<feBlend mode="multiply" in2="effect1_dropShadow_396_1043" result="effect2_dropShadow_396_1043"/>
<feBlend mode="normal" in="SourceGraphic" in2="effect2_dropShadow_396_1043" result="shape"/>
</filter>
<filter id="filter2_dd_396_1043" x="-14" y="120" width="389" height="335" filterUnits="userSpaceOnUse" color-interpolation-filters="sRGB">
<feFlood flood-opacity="0" result="BackgroundImageFix"/>
<feColorMatrix in="SourceAlpha" type="matrix" values="0 0 0 0 0 0 0 0 0 0 0 0 0 0 0 0 0 0 127 0" result="hardAlpha"/>
<feOffset dy="24"/>
<feGaussianBlur stdDeviation="16"/>
<feColorMatrix type="matrix" values="0 0 0 0 0.196487 0 0 0 0 0.196487 0 0 0 0 0.279476 0 0 0 0.08 0"/>
<feBlend mode="multiply" in2="BackgroundImageFix" result="effect1_dropShadow_396_1043"/>
<feColorMatrix in="SourceAlpha" type="matrix" values="0 0 0 0 0 0 0 0 0 0 0 0 0 0 0 0 0 0 127 0" result="hardAlpha"/>
<feOffset dy="16"/>
<feGaussianBlur stdDeviation="8"/>
<feColorMatrix type="matrix" values="0 0 0 0 0.196487 0 0 0 0 0.196487 0 0 0 0 0.279476 0 0 0 0.08 0"/>
<feBlend mode="multiply" in2="effect1_dropShadow_396_1043" result="effect2_dropShadow_396_1043"/>
<feBlend mode="normal" in="SourceGraphic" in2="effect2_dropShadow_396_1043" result="shape"/>
</filter>
<filter id="filter3_dd_396_1043" x="137" y="242" width="20" height="23" filterUnits="userSpaceOnUse" color-interpolation-filters="sRGB">
<feFlood flood-opacity="0" result="BackgroundImageFix"/>
<feColorMatrix in="SourceAlpha" type="matrix" values="0 0 0 0 0 0 0 0 0 0 0 0 0 0 0 0 0 0 127 0" result="hardAlpha"/>
<feOffset dy="2"/>
<feGaussianBlur stdDeviation="2"/>
<feColorMatrix type="matrix" values="0 0 0 0 0.196487 0 0 0 0 0.196487 0 0 0 0 0.279476 0 0 0 0.06 0"/>
<feBlend mode="multiply" in2="BackgroundImageFix" result="effect1_dropShadow_396_1043"/>
<feColorMatrix in="SourceAlpha" type="matrix" values="0 0 0 0 0 0 0 0 0 0 0 0 0 0 0 0 0 0 127 0" result="hardAlpha"/>
<feOffset dy="2"/>
<feGaussianBlur stdDeviation="1"/>
<feColorMatrix type="matrix" values="0 0 0 0 0.196487 0 0 0 0 0.196487 0 0 0 0 0.279476 0 0 0 0.06 0"/>
<feBlend mode="multiply" in2="effect1_dropShadow_396_1043" result="effect2_dropShadow_396_1043"/>
<feBlend mode="normal" in="SourceGraphic" in2="effect2_dropShadow_396_1043" result="shape"/>
</filter>
<linearGradient id="paint0_linear_396_1043" x1="188" y1="0" x2="188" y2="399" gradientUnits="userSpaceOnUse">
<stop stop-color="#DF9A57"/>
<stop offset="1" stop-color="#79542F"/>
</linearGradient>
<linearGradient id="paint1_linear_396_1043" x1="150" y1="306" x2="150" y2="252" gradientUnits="userSpaceOnUse">
<stop stop-color="white"/>
<stop offset="0.412204" stop-color="#C3A385"/>
<stop offset="1" stop-color="#B56110"/>
</linearGradient>
</defs>
</svg>
